<svg xmlns="http://www.w3.org/2000/svg" version="1.1" xmlns:xlink="http://www.w3.org/1999/xlink" xmlns:svgjs="http://svgjs.com/svgjs" height="286.74999237060547" width="281.0000419616699">
    <defs id="SvgjsDefs1045"></defs>
    <g id="SvgjsG1046" rel="mainfill" name="main_text" xmlns:name="main_text" transform="translate(51.12002372741699,-95.46001052856445)" fill="#000000">
        <path d="M0 215.84L10.03 215.84L10.05 217.09Q10.03 217.21 9.88 217.23L9.00 217.29L8.26 217.48L7.88 217.73L7.73 217.88L7.53 218.31L7.40 218.81L7.28 219.94L7.28 235.83L7.47 237.20L7.75 237.86L8.04 238.19L8.24 238.31L8.95 238.55L9.81 238.63L10.05 238.70L10.05 239.95L9.81 239.97L0.07 240L0 239.76L0 238.80Q0.01 238.67 0.15 238.63L0.74 238.60L1.52 238.43L2.08 238.09L2.35 237.72L2.62 237.06L2.74 236.25L2.74 220.27L2.67 219.43L2.50 218.66L2.23 218.00L1.91 217.68L1.52 217.45L0.78 217.26L0.17 217.23Q0.04 217.22 0 217.09L0 215.84ZM20.06 215.84L20.94 217.61L27.80 227.22L27.98 227.39L34.19 217.14L34.65 215.89L35.02 215.84L37.36 215.93L37.71 216.01L41.26 215.84L41.34 217.14L40.56 217.21L39.89 217.38L39.34 217.66L39.11 217.85L38.93 218.11L38.81 218.40L38.74 218.75L38.72 219.59L38.64 219.94L39.68 235.75L39.97 237.20L40.24 237.76L40.44 237.98L40.96 238.31L41.63 238.48L42.65 238.55L42.68 238.70L42.63 239.83Q42.49 239.92 42.31 239.92L34.12 239.83L33.02 239.92L33.07 238.60L34.18 238.45L34.50 238.33L34.99 238.00L35.17 237.76L35.40 237.12L35.57 236.04L35.47 232.76L35.55 232.41L35.02 219.88L34.94 219.73L29.78 228.74L29.46 229.54L29.50 229.61L29.30 229.84L29.15 230.14L29.08 230.42L27.98 232.72L27.60 232.76L26.88 232.76L26.00 230.97L20.01 222.15L19.84 222.10L19.77 222.18L19.71 232.29L19.80 232.64L19.77 235.51L19.89 236.65L20.17 237.65L20.35 237.90L20.55 238.11L20.82 238.25L21.43 238.48L22.19 238.52Q22.32 238.59 22.39 238.75L22.44 239.92L13.02 240Q12.85 239.99 12.83 239.77L12.75 238.68L12.83 238.63L13.98 238.51L14.59 238.31L15.08 237.93L15.25 237.68L15.47 237.06L16.25 219.77L16.22 218.95L16.17 218.58L16.05 218.28L15.67 217.81L15.45 217.64L15.15 217.49L14.50 217.29L13.55 217.21L13.57 215.92L13.75 215.89L14.12 215.93L20.06 215.84ZM56.63 215.80L58.49 216.24L59.94 217.05L60.56 217.57L61.09 218.19L61.66 219.12L61.95 219.96L62.18 221.27L62.01 224.07L61.42 225.75L60.82 226.67L60.11 227.47L59.05 228.32L57.06 229.36L55.89 229.72L51.31 230.07L51.31 236.37L51.51 237.34L51.73 237.85L51.90 238.08L52.34 238.37L52.94 238.55L54.09 238.64L54.09 239.68L54.05 240L43.92 240L43.92 238.70L45.52 238.43L46.01 238.13L46.34 237.70L46.43 237.43L46.73 235.44L46.67 219.59L46.43 218.34L46.19 217.81L45.99 217.62L45.49 217.34L44.59 217.15L43.92 217.13L43.92 215.77L56.63 215.80M51.28 217.60L51.28 228.63L53.11 228.63L54.44 228.34L55.21 228.03L55.87 227.60L56.42 227.06L56.63 226.74L57.28 225.20L57.52 223.83L57.57 222.38L57.37 220.82L57.25 220.41L56.91 219.67L56.47 219.02L56.19 218.78L55.56 218.34L54.79 217.99L53.02 217.62L51.54 217.57L51.28 217.60ZM78.03 216.03L84.58 217.48L84.71 217.75L85.39 223.26L85.12 223.38L84.21 223.54L83.99 223.38L83.48 222.09L81.99 219.91L80.58 218.78L79.02 218.13L77.46 217.88L75.03 217.95L73.85 218.23L73.07 218.54L72.13 219.09L71.33 219.72L70.03 221.35L69.04 223.28L68.40 225.54L68.26 228.15L68.66 228.24L69.37 228.25L69.68 228.21L75.88 225.65L76.18 225.59L77.22 225.66L77.78 225.84L78.28 226.06L78.90 226.53L79.52 227.38L79.68 227.95L79.75 228.62L79.63 229.22L79.40 229.72L78.68 230.47L78.03 230.93L77.91 230.71L78.03 230.53L78.64 230.03L78.94 229.60L79.02 229.32L78.97 229.01L78.75 228.85L78.50 228.75L77.93 228.68L77.58 228.78L73.16 230.57L72.01 230.88L71.68 230.93L70.65 230.93L69.72 230.74L68.54 230.22L68.52 230.28L69.09 232.29L70.03 234.25L71.06 235.75L71.80 236.52L73.09 237.38L74.41 237.88L75.66 238.09L77.11 238.12L78.40 237.96L79.53 237.62L80.74 237.00L81.56 236.37L82.90 234.81L84.02 232.62L84.30 231.68L85.40 231.90L85.65 231.99L84.64 237.90L81.47 239.13L77.13 239.91L74.34 239.93L71.59 239.40L70.03 238.75L67.62 237.15L65.85 235.28L65.10 234.21L64.37 232.74L63.69 230.15L63.57 227.69L63.78 225.74L64.56 223.21L65.45 221.56L66.40 220.31L68.31 218.57L70.31 217.29L73.00 216.32L75.53 215.97L78.03 216.03ZM101.57 227.80L105.16 233.19Q105.44 233.63 105.80 234.23Q106.17 234.83 106.57 235.44Q107.36 236.63 108.34 237.63Q109.33 238.63 110.52 238.63L110.52 240L107.19 240Q105.63 240 104.78 239.64Q103.92 239.27 103.24 238.40Q102.96 238.05 102.66 237.59Q102.36 237.14 102.00 236.56L97.36 229.10L95.16 229.10L95.16 233.48L95.16 235.08Q95.16 236.77 95.56 237.70Q95.95 238.63 97.92 238.63L97.92 240Q97.30 239.96 96.70 239.93Q96.10 239.89 95.48 239.85Q94.88 239.85 94.28 239.84Q93.68 239.83 93.06 239.83Q92.08 239.83 91.10 239.86Q90.12 239.89 89.15 239.93Q88.82 239.96 88.49 239.98Q88.17 240 87.85 240L87.85 238.63Q89.84 238.63 90.24 237.70Q90.63 236.77 90.63 235.08L90.60 233.48L90.60 222.41L90.63 220.77Q90.63 219.00 90.20 218.09Q89.77 217.19 87.85 217.19L87.85 215.89Q89.11 215.96 90.36 215.99Q91.61 216.03 92.85 216.03Q93.57 216.03 94.31 215.99Q95.05 215.96 95.78 215.92Q96.50 215.92 97.24 215.88Q97.98 215.85 98.71 215.85Q98.75 215.85 98.80 215.85Q98.86 215.85 98.92 215.85Q101.57 215.89 103.76 217.12Q105.95 218.35 105.95 221.47Q105.95 223.74 104.80 225.35Q103.64 226.96 101.57 227.80L101.57 227.80M95.16 227.43Q97.81 227.43 99.56 226.24Q101.32 225.04 101.32 222.18Q101.32 219.69 99.92 218.68Q98.53 217.66 96.25 217.66Q95.99 217.66 95.72 217.68Q95.46 217.69 95.16 217.77L95.16 227.43L95.16 227.43ZM109.55 215.84L119.58 215.84L119.61 217.09Q119.58 217.21 119.43 217.23L118.56 217.29L117.82 217.48L117.43 217.73L117.28 217.88L117.08 218.31L116.96 218.81L116.84 219.94L116.84 235.83L117.03 237.20L117.31 237.86L117.59 238.19L117.79 238.31L118.50 238.55L119.36 238.63L119.61 238.70L119.61 239.95L119.36 239.97L109.62 240L109.55 239.76L109.55 238.80Q109.57 238.67 109.70 238.63L110.29 238.60L111.07 238.43L111.64 238.09L111.91 237.72L112.17 237.06L112.30 236.25L112.30 220.27L112.23 219.43L112.05 218.66L111.78 218.00L111.46 217.68L111.07 217.45L110.33 217.26L109.73 217.23Q109.59 217.22 109.55 217.09L109.55 215.84ZM122.31 215.90L132.05 215.90L132.02 217.25L131.12 217.25L130.37 217.38L129.97 217.60L129.68 217.91L129.56 218.09L129.35 218.79L129.23 219.87L129.25 231.28L129.52 233.43L129.78 234.38L130.40 235.55L130.91 236.25L131.55 236.83L132.29 237.30L133.58 237.81L134.55 238.02L136.58 237.97L138.30 237.59L139.12 237.20L139.83 236.71L140.41 236.09L140.96 235.12L141.52 233.60L142.14 229.99L142.22 220.73L142.10 219.34L141.86 218.39L141.65 218.00L141.48 217.84L140.93 217.50L140.48 217.36L139.40 217.22L139.40 216.00L139.45 215.90L147.06 215.90Q147.20 215.93 147.21 216.07L147.21 216.98L147.16 217.25L146.56 217.25L146.04 217.32L145.61 217.48L145.25 217.72L144.99 218.05L144.80 218.48L144.68 218.95L144.53 220.33L144.32 232.45L143.89 234.46L143.15 236.10L142.20 237.27L141.00 238.19L138.02 239.42L134.39 240L132.88 239.97L131.10 239.66L128.89 238.86L127.56 238.06L126.49 237.04L125.77 235.94L125.41 235.08L125.04 233.67L124.86 232.34L124.82 220.33L124.71 219.20L124.55 218.48L124.39 218.03L124.12 217.69L123.74 217.48L122.79 217.25L122.33 217.25L122.31 217.10L122.31 215.90ZM156.15 215.84L157.02 217.61L163.89 227.22L164.06 227.39L170.27 217.14L170.73 215.89L171.10 215.84L173.44 215.93L173.79 216.01L177.34 215.84L177.42 217.14L176.64 217.21L175.97 217.38L175.42 217.66L175.19 217.85L175.01 218.11L174.89 218.40L174.83 218.75L174.80 219.59L174.72 219.94L175.77 235.75L176.05 237.20L176.32 237.76L176.52 237.98L177.04 238.31L177.72 238.48L178.74 238.55L178.76 238.70L178.71 239.83Q178.58 239.92 178.39 239.92L170.20 239.83L169.10 239.92L169.15 238.60L170.26 238.45L170.58 238.33L171.08 238.00L171.25 237.76L171.48 237.12L171.65 236.04L171.55 232.76L171.63 232.41L171.10 219.88L171.02 219.73L165.86 228.74L165.54 229.54L165.58 229.61L165.38 229.84L165.23 230.14L165.16 230.42L164.06 232.72L163.69 232.76L162.96 232.76L162.09 230.97L156.09 222.15L155.92 222.10L155.85 222.18L155.80 232.29L155.88 232.64L155.85 235.51L155.97 236.65L156.25 237.65L156.43 237.90L156.63 238.11L156.90 238.25L157.52 238.48L158.27 238.52Q158.40 238.59 158.47 238.75L158.52 239.92L149.10 240Q148.93 239.99 148.92 239.77L148.84 238.68L148.92 238.63L150.06 238.51L150.68 238.31L151.16 237.93L151.33 237.68L151.55 237.06L152.33 219.77L152.30 218.95L152.25 218.58L152.13 218.28L151.75 217.81L151.54 217.64L151.23 217.49L150.58 217.29L149.63 217.21L149.66 215.92L149.83 215.89L150.21 215.93L156.15 215.84Z" fill="#000000" style="fill: rgb(0, 0, 0);"></path>
    </g>
    <g id="SvgjsG1047" rel="mainfill" name="slogan_text" xmlns:name="slogan_text" transform="translate(80.18002223968506,-70.2700080871582)" fill="#000000">
        <path d="M9.05 236.74C9.05 234.44 7.23 233.76 5.58 233.14C4.42 232.71 3.55 232.33 3.55 231.26C3.55 230.41 4.25 229.75 5.50 229.75C6.35 229.75 7.40 230.12 7.93 230.45L8.67 228.79C7.84 228.30 6.66 227.95 5.23 227.95C2.61 227.95 1.10 229.31 1.10 231.26C1.10 233.47 2.87 234.20 4.45 234.79C5.65 235.23 6.55 235.64 6.55 236.71C6.55 237.70 5.69 238.34 4.40 238.34C3.50 238.34 2.21 237.94 1.60 237.57L0.79 239.41C1.64 239.87 3.09 240.24 4.47 240.24C7.42 240.24 9.05 238.86 9.05 236.74ZM17.04 239.89L17.04 237.90C16.84 237.99 16.51 238.05 16.23 238.05C15.35 238.05 14.65 237.63 14.65 236.56L14.65 229.99L17.04 229.99L17.04 228.19L14.65 228.19L14.65 224.73L12.31 225.46L12.31 228.19L10.71 228.19L10.71 229.99L12.31 229.99L12.31 236.69C12.31 238.99 13.47 240.15 15.55 240.15C16.16 240.15 16.75 240.02 17.04 239.89ZM29.09 233.14C29.09 229.97 27.27 227.95 24.20 227.95C20.89 227.95 18.88 230.47 18.88 234.09C18.88 237.85 20.96 240.24 24.68 240.24C26.30 240.24 27.88 239.89 28.80 239.41L28.10 237.61C27.29 238.05 26.02 238.34 24.84 238.34C22.84 238.34 21.46 237.26 21.22 235.14L29.06 234.04C29.09 233.74 29.09 233.43 29.09 233.14ZM26.79 232.77L21.07 233.56C21.11 231.11 22.32 229.71 24.16 229.71C25.73 229.71 26.76 230.71 26.79 232.77ZM41.37 234.00C41.37 230.25 39.31 227.95 35.63 227.95C34.01 227.95 32.41 228.35 31.58 228.79L31.58 244.71L33.97 244.71L33.97 239.85C34.36 239.98 35.17 240.13 35.90 240.13C39.47 240.13 41.37 237.61 41.37 234.00ZM38.99 234.00C38.99 236.47 37.85 238.27 35.68 238.27C35.04 238.27 34.28 238.14 33.97 238.01L33.97 230.14C34.30 229.99 35.02 229.84 35.68 229.84C37.82 229.84 38.99 231.44 38.99 234.00ZM59.38 233.82C59.38 230.21 57.32 228.02 54.27 228.02C53.46 228.02 52.54 228.24 51.97 228.50L51.97 222.81L49.59 222.81L49.59 239.41C50.51 239.87 52.02 240.24 53.55 240.24C57.08 240.24 59.38 238.27 59.38 233.82ZM56.99 234.00C56.99 237.02 55.59 238.34 53.68 238.34C53.00 238.34 52.32 238.18 51.97 238.03L51.97 230.28C52.43 230.03 53.20 229.88 53.86 229.88C55.76 229.88 56.99 231.41 56.99 234.00ZM72.28 228.19L69.60 228.19L67.02 236.21C66.76 237.02 66.63 237.99 66.63 237.99L66.58 237.99C66.58 237.99 66.43 237.04 66.17 236.21L63.60 228.19L60.93 228.19L65.35 240L63.58 244.71L66.10 244.71ZM87.52 236.74C87.52 234.44 85.70 233.76 84.06 233.14C82.90 232.71 82.02 232.33 82.02 231.26C82.02 230.41 82.72 229.75 83.97 229.75C84.83 229.75 85.88 230.12 86.40 230.45L87.15 228.79C86.32 228.30 85.13 227.95 83.71 227.95C81.08 227.95 79.57 229.31 79.57 231.26C79.57 233.47 81.34 234.20 82.92 234.79C84.12 235.23 85.02 235.64 85.02 236.71C85.02 237.70 84.17 238.34 82.88 238.34C81.98 238.34 80.69 237.94 80.07 237.57L79.26 239.41C80.12 239.87 81.56 240.24 82.94 240.24C85.90 240.24 87.52 238.86 87.52 236.74ZM95.51 239.89L95.51 237.90C95.32 237.99 94.99 238.05 94.70 238.05C93.83 238.05 93.13 237.63 93.13 236.56L93.13 229.99L95.51 229.99L95.51 228.19L93.13 228.19L93.13 224.73L90.78 225.46L90.78 228.19L89.18 228.19L89.18 229.99L90.78 229.99L90.78 236.69C90.78 238.99 91.94 240.15 94.02 240.15C94.64 240.15 95.23 240.02 95.51 239.89ZM107.56 233.14C107.56 229.97 105.74 227.95 102.68 227.95C99.37 227.95 97.35 230.47 97.35 234.09C97.35 237.85 99.43 240.24 103.16 240.24C104.78 240.24 106.36 239.89 107.28 239.41L106.57 237.61C105.76 238.05 104.49 238.34 103.31 238.34C101.32 238.34 99.94 237.26 99.70 235.14L107.54 234.04C107.56 233.74 107.56 233.43 107.56 233.14ZM105.26 232.77L99.54 233.56C99.59 231.11 100.79 229.71 102.63 229.71C104.21 229.71 105.24 230.71 105.26 232.77ZM119.85 234.00C119.85 230.25 117.79 227.95 114.11 227.95C112.49 227.95 110.89 228.35 110.06 228.79L110.06 244.71L112.44 244.71L112.44 239.85C112.84 239.98 113.65 240.13 114.37 240.13C117.94 240.13 119.85 237.61 119.85 234.00ZM117.46 234.00C117.46 236.47 116.32 238.27 114.15 238.27C113.52 238.27 112.75 238.14 112.44 238.01L112.44 230.14C112.77 229.99 113.50 229.84 114.15 229.84C116.30 229.84 117.46 231.44 117.46 234.00Z" fill="#000000" style="fill: rgb(0, 0, 0);"></path>
    </g>
    <g id="SvgjsG1048" transform="translate(0.0000015556811376882251,0.09999993443489075) scale(2.5)" rel="mainfill" name="outline_container" xmlns:name="outlineContainer_mainfill" fill="#1F8A70">
        <g fill="#1F8A70">
            <path d="M112.4 57.3a9.2 9.2 0 0 0-1.1-3.8 9.1 9.1 0 0 0 .6-3.9 9.3 9.3 0 0 0-1.7-3.7 9.3 9.3 0 0 0 .1-4.1 8.6 8.6 0 0 0-1.9-3.1 8.9 8.9 0 0 0-.5-3.7 8.6 8.6 0 0 0-2.2-2.8 8.6 8.6 0 0 0-.9-3.5A8.9 8.9 0 0 0 102 26a9.1 9.1 0 0 0-1.4-3.7 8.9 8.9 0 0 0-3.3-2.4 9.3 9.3 0 0 0-2-3.6 8.4 8.4 0 0 0-3.2-1.8 8.6 8.6 0 0 0-2.1-2.9 8.2 8.2 0 0 0-3.3-1.3 8.4 8.4 0 0 0-2.5-2.6 8.5 8.5 0 0 0-3.7-.9 8.9 8.9 0 0 0-3-2.5 7.3 7.3 0 0 0-2.7-.5h-1.3a8.9 8.9 0 0 0-3.5-2l-1.4-.2-2.3.3A8.4 8.4 0 0 0 63.1.4a8.1 8.1 0 0 0-3.4.5 8.3 8.3 0 0 0-3.4-1A8.8 8.8 0 0 0 52.6 1a10 10 0 0 0-3.3-.5h-.7A8.9 8.9 0 0 0 45 2.2l-2.4-.3-1.6.2A8.4 8.4 0 0 0 37.9 4h-.4a7.8 7.8 0 0 0-3.2.5 8.4 8.4 0 0 0-2.8 2.2 8.1 8.1 0 0 0-3.4.9 8.8 8.8 0 0 0-2.7 2.9 8.5 8.5 0 0 0-3.6 1.5 9.1 9.1 0 0 0-2.3 3.3 9 9 0 0 0-3.6 2 8.7 8.7 0 0 0-1.8 3.3 8.4 8.4 0 0 0-2.9 2.2 8.5 8.5 0 0 0-1.2 3.3 8.4 8.4 0 0 0-2.5 2.5 9 9 0 0 0-.9 3.8 9 9 0 0 0-2.4 3.1 9.5 9.5 0 0 0-.4 4.1 9.1 9.1 0 0 0-2.1 3.5 8.8 8.8 0 0 0 .1 3.7 8.6 8.6 0 0 0-1.4 3.5 8.5 8.5 0 0 0 .5 3.5 8.7 8.7 0 0 0-.9 3.5 9.2 9.2 0 0 0 1.1 3.8A9 9 0 0 0 .5 65a9.2 9.2 0 0 0 1.7 3.7 9.2 9.2 0 0 0-.1 4.1A8.6 8.6 0 0 0 4 76a8.8 8.8 0 0 0 .5 3.7 8.6 8.6 0 0 0 2.2 2.8 8.5 8.5 0 0 0 .9 3.5 8.8 8.8 0 0 0 2.8 2.7 9 9 0 0 0 1.4 3.7 8.9 8.9 0 0 0 3.2 2.3 9.3 9.3 0 0 0 2 3.6 8.5 8.5 0 0 0 3.2 1.8 8.5 8.5 0 0 0 2.2 2.9 8.1 8.1 0 0 0 3.3 1.3 8.3 8.3 0 0 0 2.5 2.6 8.4 8.4 0 0 0 3.7.9 9 9 0 0 0 3 2.5 7.3 7.3 0 0 0 2.7.5h1.3a8.9 8.9 0 0 0 3.4 2.1l1.3.2 2.3-.3a8.4 8.4 0 0 0 3.3 1.4h.5a9.1 9.1 0 0 0 3-.6 8.3 8.3 0 0 0 3.4 1 8.7 8.7 0 0 0 3.7-1.1 9.9 9.9 0 0 0 3.1.6h.7a8.9 8.9 0 0 0 3.7-1.7l2.4.3 1.6-.2a8.4 8.4 0 0 0 3.1-1.9h.4a7.8 7.8 0 0 0 3.2-.5 8.4 8.4 0 0 0 2.8-2.2 8 8 0 0 0 3.4-.9 8.9 8.9 0 0 0 2.7-2.9 8.5 8.5 0 0 0 3.6-1.4 9.2 9.2 0 0 0 2.3-3.3 9.1 9.1 0 0 0 3.6-2 8.8 8.8 0 0 0 1.8-3.4 8.4 8.4 0 0 0 2.9-2.2 8.6 8.6 0 0 0 1.3-3.3 8.4 8.4 0 0 0 2.5-2.5 8.9 8.9 0 0 0 .9-3.8 9 9 0 0 0 2.4-3.1 9.4 9.4 0 0 0 .4-4.1 9.1 9.1 0 0 0 2.1-3.5 8.9 8.9 0 0 0-.1-3.7 8.7 8.7 0 0 0 1.4-3.4 8.5 8.5 0 0 0-.5-3.5 8.8 8.8 0 0 0 .9-3.6zm-.5 0a7.5 7.5 0 0 1-.7 2.8 28.5 28.5 0 0 0-1.4-3.2 29 29 0 0 0 1.3-2.9 8 8 0 0 1 .8 3.3zM105 40.8l2.2 2.2c-.3 1.2-.6 2.3-.9 3.3l-2-2.2c.2-.4.4-1.6.7-3.3zm-.3-1l-2.5-2.2c0-.4.2-1.8.3-3.5l2.7 2.1c-.1 1.3-.3 2.5-.5 3.7zm4 9.5l-2-2.5c.3-1 .6-2.1.9-3.3a27.9 27.9 0 0 1 2 2.5 28.3 28.3 0 0 1-.9 3.3zm.1 1a27.5 27.5 0 0 1 1.9 3.1 26.1 26.1 0 0 1-1.3 2.9c-.6-1.1-1.3-2.2-1.8-3.1zm-2.3-3l1.9 2.5-1.2 2.9-1.8-2.6c.3-.2.7-1.3 1.2-2.7zm.8 6.5l1.8 3.1-1.6 2.8c-.8-1.6-1.4-2.8-1.6-3.1zm1.5 10.2l-2.2 2.9c-.5-1.6-1-2.8-1.1-3.2l2-2.9c.6 1 1 2.1 1.4 3.3zm-1.5 6.9l-2.3 2.5c-.3-1.5-.5-2.6-.6-3l2.2-2.5c.3 1 .6 2 .8 3zm-.4-3.4l2.2-2.9a24.8 24.8 0 0 1 .9 3 26.2 26.2 0 0 1-2.2 2.9c-.3-1.1-.6-2.1-.8-3zm.9-7.2l1.6-2.8a25.2 25.2 0 0 1 1.4 3.2 23.3 23.3 0 0 1-1.6 2.8c-.4-1.1-.8-2.2-1.3-3.2zm3.5-10.6a7.9 7.9 0 0 1-.4 3.2 29 29 0 0 0-1.9-3.1 30.4 30.4 0 0 0 1-3.3 8.1 8.1 0 0 1 1.4 3.2zm-1.6-7.8a8.2 8.2 0 0 1 0 3.4l-2-2.4a28.2 28.2 0 0 0 .6-3.6 7.3 7.3 0 0 1 1.5 2.6zm-4.1-9.1a7.4 7.4 0 0 1 1.7 2.3 7.7 7.7 0 0 1 .4 3l-2-2.1a28.1 28.1 0 0 0 .1-3.2zm2.1 6a26.3 26.3 0 0 1-.5 3.7l-2.2-2.2c.2-1.1.4-2.4.5-3.6zm-2.7-3.2l-2.7-2.1v-3.3a23.9 23.9 0 0 1 2.8 2.1 24 24 0 0 1 .1 3.3zm-.8-6.7a7.4 7.4 0 0 1 .8 2.8l-2.7-2a28.5 28.5 0 0 0-.3-3.1 7.7 7.7 0 0 1 2.4 2.3zm-2.2 4.3l-3-1.9c0-.4 0-1.6-.2-3.1l3.1 1.8c.1 1.1.1 2.2.1 3.2zm0-3.9l-3.1-1.8c-.1-.9-.2-2-.4-3.1l3.2 1.7a28.7 28.7 0 0 1 .2 3.2zm-1.7-6.8a7.8 7.8 0 0 1 1.2 3l-3.1-1.7a29.4 29.4 0 0 0-.8-3.4 7.7 7.7 0 0 1 2.7 2.2zm-2 4.8L95.5 26c-.1-.4-.3-1.5-.6-3l3 1.2c.2 1.1.3 2.2.4 3.1zm-.5-3.7l-3-1.2c-.2-1-.5-2.2-.9-3.4l3 1.2a27.1 27.1 0 0 1 .9 3.5zm-3.5-1.4l-2.8-.9c-.1-.4-.5-1.6-1-3.2l3 .8c.2 1.2.5 2.3.8 3.4zm.8-5.6a8.2 8.2 0 0 1 1.7 3l-3-1.1a29.2 29.2 0 0 0-1.3-3.4 7.4 7.4 0 0 1 2.6 1.5zm-1.9 1.7l-3-.8c-.4-1.1-.8-2.3-1.4-3.4l3 .7a27 27 0 0 1 1.4 3.5zm-3.5-.9l-3.3-.6c-.2-.4-.7-1.7-1.5-3.2l3.4.4c.5 1.2 1 2.4 1.4 3.4zm.1-5.5a7.3 7.3 0 0 1 1.8 2.3l-2.9-.7a26.3 26.3 0 0 0-1.5-2.8 7.1 7.1 0 0 1 2.5 1.2zM88 13.5l-3.4-.4-1.6-2.8 3.4.4a24.3 24.3 0 0 1 1.6 2.8zm-4-.4h-3.4l-1.7-2.6h3.6zm0-5a7.3 7.3 0 0 1 2 2l-3.3-.3A27.5 27.5 0 0 0 81 7.3a7.5 7.5 0 0 1 3 .8zm-1.8 1.7h-3.7l-1.8-2.4h3.7a25.7 25.7 0 0 1 1.8 2.4zm-4.2.1l-3.1.3-2-2.3 3.1-.4zm-3.2-5.6a6.7 6.7 0 0 1 2.5.4 7.8 7.8 0 0 1 2.6 2h-.5l-3.1.2A30.5 30.5 0 0 0 74 4.3zm.9 2.7l-3.1.5-2.5-2.6 3.2-.5A28.4 28.4 0 0 1 75.7 7zm-3.7.5l-2.9.6-2.5-2.2 2.9-.8zm-3.3-5.4h1.2A7.7 7.7 0 0 1 72.8 4l-3.1.6A28.2 28.2 0 0 0 67 2.3zm.5 2.6l-2.9.9-2.9-2.3 3-.9a25.4 25.4 0 0 1 2.7 2.3zm-3.5 1l-3.2 1.1-2.9-2 3.2-1.4zM63 .9A7.3 7.3 0 0 1 65.7 2l-2.9.9-2.6-1.6A7 7 0 0 1 63 .9zm-.7 2.2l-3.2 1.4-2.7-1.6 3.2-1.4zm-3.7 1.7l-3.1 1.7-2.7-1.4 3.1-1.9zM56.2.5a7.2 7.2 0 0 1 2.8.7l-3.1 1.4-2.8-1.3a7.6 7.6 0 0 1 3.1-.8zm-3.7 1.1l2.9 1.3-3.1 1.9-2.9-1.2a26.5 26.5 0 0 1 3.1-2zm-.7 3.5l-2.5 1.8-2.8-1 2.5-2zM48.7 1h.6a8.7 8.7 0 0 1 2.5.5l-3 1.9-3.2-1A7.8 7.8 0 0 1 48.7 1zm-3.6 1.8l3.3 1-2.5 2-3.3-.9zm.4 3.4l-2.2 2-3.3-.7 2.2-2.3zm-4.4-3.6l1.5-.2 1.9.2-2.4 2.1-3.5-.6a7.2 7.2 0 0 1 2.5-1.5zm-3 2l3.6.5-2.2 2.3-3.6-.5A24.9 24.9 0 0 1 38 4.6zm1 3.2L37 10.4l-3.5-.3 2.1-2.8zM34.4 5a7.3 7.3 0 0 1 2.9-.5l-2 2.3h-3.1A7.3 7.3 0 0 1 34.4 5zm-2.7 2.3h3.2l-2 2.8h-3.2a24.7 24.7 0 0 1 2-2.8zm.9 3.3c-1 1.5-1.7 2.6-1.9 3l-3.1.2c.5-1 1.1-2.1 1.7-3.2h3.2zm-4.3-2.5a7 7 0 0 1 2.7-.8 26.2 26.2 0 0 0-2 2.8l-3 .3a7.7 7.7 0 0 1 2.3-2.3zM25.7 11l3.1-.3-1.8 3.1-3 .4a27.1 27.1 0 0 1 1.7-3.2zm1.1 3.4l-1.3 2.9-2.9.6c.3-.9.7-2 1.2-3zm-4.7-2a7.6 7.6 0 0 1 2.9-1.2 30.4 30.4 0 0 0-1.6 3.2l-3.3.8a7.9 7.9 0 0 1 2-2.9zm-2.3 3.4l3.4-.8c-.5 1.1-.8 2.1-1.2 3l-3.3.9a28.1 28.1 0 0 1 1.1-3.2zm2 2.8c-.5 1.4-.8 2.5-.9 2.9l-3.1 1c.2-.9.5-2 .8-3zm-5.5-.8a8 8 0 0 1 2.9-1.7 31.6 31.6 0 0 0-1 2.9l-3.4 1.3a7.6 7.6 0 0 1 1.5-2.7zm-1.7 3.3a25.7 25.7 0 0 1 3.4-1.6c-.3 1.1-.6 2.1-.8 3L13.9 24a25.4 25.4 0 0 1 .7-3.1zm2.5 2.2c-.3 1.6-.5 2.9-.6 3.3L13.4 28c.1-1.1.2-2.3.4-3.4zm-5.4-.1a7.3 7.3 0 0 1 2.3-2 27.1 27.1 0 0 0-.7 3l-2.7 1.5a7.3 7.3 0 0 1 1.1-2.6zm-1.2 3.3l2.8-1.6c-.2 1.2-.3 2.4-.4 3.4l-2.7 1.6a25.5 25.5 0 0 1 .3-3.5zm-.4 4.1l2.7-1.6c-.1 1.8-.1 3.1-.1 3.6l-2.5 1.7c-.1-1.3-.2-2.5-.1-3.8zM7.3 73.8l-2.2-2.3c.3-1.2.6-2.3.9-3.3l2 2.2c-.1.5-.4 1.7-.7 3.4zm.3 1l2.5 2.2c0 .4-.2 1.8-.3 3.5l-2.6-2.1c.1-1.3.3-2.5.5-3.7zM4.5 54.3l-1.6 2.8a25.7 25.7 0 0 1-1.4-3.2A22.7 22.7 0 0 1 3.1 51c.4 1.2.9 2.3 1.4 3.3zM2.3 47a25.8 25.8 0 0 1 2.2-2.9c.3 1.1.5 2.1.8 3L3.2 50a24.6 24.6 0 0 1-.9-3zm.5 11.2l1.9 3.1-1.2 2.9a25.7 25.7 0 0 1-1.9-3.1 27.9 27.9 0 0 1 1.3-3zm.8 7.1l2 2.5c-.3 1-.6 2.1-.9 3.3a25.6 25.6 0 0 1-2-2.5 27.8 27.8 0 0 1 1-3.3zm2.1 1.9l-1.8-2.5L5 61.8l1.8 2.6c-.2.3-.5 1.4-1 2.8zM5 60.8l-1.9-3.2 1.6-2.8c.8 1.6 1.4 2.8 1.6 3.1zM3.4 50.5l2.2-2.9c.5 1.6 1 2.8 1.1 3.2l-1.9 3c-.5-1-1-2.1-1.4-3.3zM5 43.6l2.4-2.5c.3 1.5.5 2.6.6 3l-2.2 2.5c-.3-.9-.6-1.9-.8-3zM7.3 37l2.4-1.9c.1 1.5.2 2.7.3 3.1l-2.2 2c-.3-1-.4-2.1-.5-3.2zm.7-8.1a7.2 7.2 0 0 1 2-2.1 27.6 27.6 0 0 0-.3 3.4L7.1 32a7.8 7.8 0 0 1 .8-3.1zm-.8 3.8l2.5-1.9c0 1.3 0 2.6.1 3.7l-2.6 1.9a27.6 27.6 0 0 1-.1-3.7zm.2 7.9l-2.6 2.5a27.4 27.4 0 0 1-.5-3.2 27.9 27.9 0 0 1 2.5-2.5c.2 1.1.3 2.2.5 3.2zm-2.8-4.9a7.9 7.9 0 0 1 2-2.6 32.6 32.6 0 0 0 .2 3.7 29.4 29.4 0 0 0-2.5 2.4 8.2 8.2 0 0 1 .3-3.5zm-2.4 7.6a8.1 8.1 0 0 1 1.7-3 31.3 31.3 0 0 0 .6 3.2 27.8 27.8 0 0 0-2.2 2.8 7.6 7.6 0 0 1-.1-3zm-1.3 7A7.6 7.6 0 0 1 2 47.5a28.3 28.3 0 0 0 .9 2.9 26.8 26.8 0 0 0-1.6 2.7 7.5 7.5 0 0 1-.4-2.8zm-.4 7a7.6 7.6 0 0 1 .7-2.8 29.6 29.6 0 0 0 1.4 3.2 30.9 30.9 0 0 0-1.3 2.8 8 8 0 0 1-.8-3.2zm.5 7.6a7.8 7.8 0 0 1 .4-3.2 28.9 28.9 0 0 0 1.9 3.1 29.1 29.1 0 0 0-1 3.3A8.1 8.1 0 0 1 1 64.9zm1.6 7.8a8.1 8.1 0 0 1 0-3.5l2 2.4a28.7 28.7 0 0 0-.6 3.7 7.3 7.3 0 0 1-1.4-2.6zm4.1 9.1A7.3 7.3 0 0 1 5 79.5a7.5 7.5 0 0 1-.4-3l2.3 2.1a27.5 27.5 0 0 0-.3 3.2zm-2.1-6a25.9 25.9 0 0 1 .4-3.7l2.2 2.2c-.2 1.1-.4 2.4-.5 3.6a24 24 0 0 1-2.2-2.1zM7.2 79l2.7 2v3.3a24 24 0 0 1-2.8-2.1 25.1 25.1 0 0 1 .1-3.2zm.8 6.7a7.3 7.3 0 0 1-.8-2.8l2.7 2a28.5 28.5 0 0 0 .3 3.1 7.8 7.8 0 0 1-2.3-2.3zm2.4-4.3l2.9 1.9c0 .4 0 1.6.2 3.1l-3.1-1.8c-.1-1.1-.1-2.2 0-3.2zm0 3.9l3.1 1.7c.1 1 .2 2 .4 3.1a26.4 26.4 0 0 1-3.2-1.7 27.1 27.1 0 0 1-.3-3.2zm1.7 6.7a7.8 7.8 0 0 1-1.2-3l3.1 1.7a29.3 29.3 0 0 0 .8 3.4 7.8 7.8 0 0 1-2.7-2.1zm2-4.8l2.8 1.3c.1.4.2 1.5.6 3l-3-1.2c-.2-1-.3-2.1-.4-3zm.5 3.7l3 1.2c.2 1 .5 2.2.9 3.4l-3-1.2a27.2 27.2 0 0 1-.9-3.4zm3.5 1.4l2.8.9c.1.4.5 1.6 1 3.2l-3-.8c-.3-1.1-.6-2.2-.8-3.3zm-.8 5.7a8.1 8.1 0 0 1-1.7-3l3 1.1a29.2 29.2 0 0 0 1.3 3.4 7.3 7.3 0 0 1-2.6-1.5zm1.9-1.7l3 .8c.4 1.1.8 2.3 1.4 3.4l-3-.7a26.4 26.4 0 0 1-1.4-3.6zm3.5.9l3.2.6c.2.4.7 1.7 1.5 3.2l-3.4-.4c-.4-1.2-.9-2.4-1.3-3.5zm-.1 5.5a7.4 7.4 0 0 1-1.8-2.3l3 .7a27.6 27.6 0 0 0 1.5 2.8 7.1 7.1 0 0 1-2.7-1.2zm1.7-1.6l3.4.4 1.6 2.8-3.4-.4a24.7 24.7 0 0 1-1.6-2.8zm4 .4h3.5l1.7 2.6h-3.6zm0 5a7.3 7.3 0 0 1-2-2l3.3.3a27.1 27.1 0 0 0 1.8 2.5 7.5 7.5 0 0 1-3.1-.8zm1.9-1.7h3.6l1.9 2.5H32a25.6 25.6 0 0 1-1.8-2.5zm4.2-.1l3.1-.3 1.9 2.3-3.1.4zm3.2 5.6a6.7 6.7 0 0 1-2.5-.4 7.7 7.7 0 0 1-2.6-2h.5l3.1-.2a30.6 30.6 0 0 0 2.3 2.6zm-.9-2.7l3.1-.5 2.4 2.5-3.2.5a27.4 27.4 0 0 1-2.3-2.5zm3.7-.6l2.9-.6 2.5 2.3-2.9.8zm3.3 5.5h-1.2a7.7 7.7 0 0 1-2.9-1.7l3.1-.6a27.9 27.9 0 0 0 2.7 2.3zm-.5-2.6l2.9-.9 2.8 2.2-2.9.9a25 25 0 0 1-2.8-2.2zm3.5-1l3.1-1.2 2.9 2-3.2 1.4zm2.6 4.8a7.2 7.2 0 0 1-2.7-1.1l2.9-.9 2.7 1.7a7 7 0 0 1-2.8.3zm.7-2.2l3.2-1.4 2.8 1.6-3.2 1.4zm3.7-1.7l3.1-1.7 2.7 1.4-3.1 1.9zm2.4 4.3a7.2 7.2 0 0 1-2.8-.7l3.1-1.4 2.8 1.3a7.6 7.6 0 0 1-3 .8zm3.7-1.2l-2.8-1.2 3.1-1.9L63 111a25.9 25.9 0 0 1-3.1 1.9zm.7-3.5l2.5-1.8 2.8 1-2.5 2zm3.1 4.1H63a8.9 8.9 0 0 1-2.5-.5l3-1.9 3.2 1a7.8 7.8 0 0 1-3.1 1.5zm3.6-1.8l-3.3-1 2.5-2 3.3.9zm-.4-3.4l2.2-2.1 3.2.7-2.2 2.3zm4.4 3.5l-1.5.2-1.9-.2 2.4-2.1 3.5.6a7.2 7.2 0 0 1-2.4 1.7zm3-2a24.3 24.3 0 0 1-3.6-.5l2.2-2.3 3.6.5a25.3 25.3 0 0 1-2.1 2.5zm-1-3.2l2.1-2.6 3.5.3-2.1 2.8zm4.6 2.8a7.3 7.3 0 0 1-2.9.5l2.1-2.3h3.1a7.4 7.4 0 0 1-2.2 2zm2.7-2.3h-3.1l2.1-2.8h3.2a24.7 24.7 0 0 1-2 3zm-.9-3.3l1.9-3 3.1-.2c-.5 1-1.1 2.1-1.7 3.2h-3.1zm4.2 2.5a7 7 0 0 1-2.7.8 26.4 26.4 0 0 0 2-2.8l3-.3a7.7 7.7 0 0 1-2.1 2.5zm2.6-2.9l-3.1.3c.7-1.1 1.2-2.2 1.7-3.2l3-.4a27.1 27.1 0 0 1-1.4 3.5zm-1.1-3.4c.7-1.4 1.1-2.5 1.3-2.9l2.9-.6c-.3.9-.7 2-1.2 3zm4.7 2a7.6 7.6 0 0 1-2.9 1.2 30.4 30.4 0 0 0 1.6-3.2l3.3-.8a8 8 0 0 1-1.8 3.1zm2.3-3.4l-3.4.8c.5-1.1.8-2.1 1.2-3l3.3-.9a27.8 27.8 0 0 1-.9 3.4zm-2-2.8c.5-1.4.8-2.5.9-2.9l3.1-1c-.2 1-.5 2-.8 3zm5.5.8a7.9 7.9 0 0 1-3 1.7 29.9 29.9 0 0 0 1.1-3.1l3.4-1.3a7.6 7.6 0 0 1-1.2 3zm1.7-3.3a25.7 25.7 0 0 1-3.4 1.4c.3-1.1.6-2.1.8-3l3.4-1.4a24.1 24.1 0 0 1-.5 3.4zM95 91.1c.3-1.6.5-2.9.6-3.3l3.4-1.2c-.1 1.1-.2 2.3-.4 3.4zm5.4.1a7.3 7.3 0 0 1-2.3 1.8 27.7 27.7 0 0 0 .7-3l2.7-1.5a7.4 7.4 0 0 1-.8 3zm1.2-3.3l-2.8 1.6c.2-1.2.3-2.4.4-3.5l2.7-1.6a25.5 25.5 0 0 1 0 3.8zm.4-4.1l-2.7 1.6c.1-1.8.1-3.1.1-3.6l2.5-1.7c.4 1.5.4 2.7.4 4zm-.2-8.1l-.2.4c0 .4.2 1.7.3 3.4l-2.8 1.9-.2.3c0 .3 0 1.8-.2 3.9l-3.5 1.7-.2.3c0 .3-.3 1.7-.7 3.7l-3.4 1.2-.3.3c-.1.3-.4 1.6-1 3.2l-3.3.7-.3.2c-.1.2-.6 1.5-1.4 3.2l-3.4.2-.3.2c-.1.3-.9 1.6-2.1 3.3l-3.8-.3-.4.2-2.3 2.8-3.6-.7h-.4l-2.4 2.3-3.1-1.1h-.3l-2.8 2-2.7-1.3h-.4l-3.4 1.8-3.2-2.2h-.3l-3.5 1.3-2.6-2.6h-.4l-3.2.7-2.2-2.5-.4-.2-3.4.3-1.9-2.9-.3-.2h-.1L28 101c-.9-1.8-1.6-3.3-1.7-3.5l-.3-.2-3.6-.7c-.6-1.8-1-3.2-1.1-3.5l-.3-.3-3.1-1c-.4-1.8-.6-3.1-.6-3.3l-.2-.3-3.1-1.5c-.2-1.8-.2-3.2-.2-3.5l-.2-.3-3.2-2.1c.1-1.9.2-3.4.3-3.8l-.2-.4-2.7-2.4c.3-1.9.7-3.3.7-3.6v-.4l-2.3-2.5c.5-1.7 1-2.9 1.1-3.2v-.4l-2-2.9c.7-1.6 1.4-2.8 1.5-3.1s0-.3 0-.4-.9-1.6-1.8-3.4c1.1-1.7 2-3 2.1-3.2v-.3c-.1-.3-.6-1.6-1.2-3.5l2.4-2.8v-.4c-.1-.3-.4-1.6-.7-3.3l2.5-2.2.2-.4c0-.4-.2-1.7-.3-3.4l3-2 .2-.3c0-.3 0-1.8.2-3.9l3.5-1.7.2-.3c0-.3.3-1.7.7-3.7l3.4-1.2.3-.3c.1-.3.4-1.6 1-3.2l3.3-.7.3-.2c.1-.2.6-1.5 1.4-3.2l3.4-.2.3-.2c.2-.3.9-1.6 2.1-3.3l3.8.3.4-.2 2.3-2.8 3.6.7h.4L46 6.3l3.1 1.1h.4l2.8-2 3.1 1.5h.4l3.4-1.8 3.2 2.2h.3L66.2 6l2.7 2.5h.4l3.1-.5 2.1 2.5.4.2 3.4-.3 1.9 2.9.3.2h.1l3.7.2c.9 1.8 1.6 3.3 1.7 3.5l.3.2 3.6.7c.6 1.8 1 3.2 1.1 3.5l.3.3 3.1 1c.4 1.8.6 3.1.6 3.3l.2.3 3.1 1.5c.2 1.8.2 3.2.2 3.5l.2.3 3.2 2.1c-.1 1.9-.2 3.4-.3 3.8l.2.4 2.7 2.4c-.3 1.9-.7 3.3-.7 3.6v.4L106 47c-.5 1.7-1 2.9-1.1 3.2v.3l1.9 2.9c-.7 1.6-1.4 2.8-1.5 3.1s0 .3 0 .4.9 1.6 1.8 3.4c-1.1 1.7-2 3-2.1 3.2v.3c.1.2.6 1.6 1.2 3.5l-2.2 2.9v.4c.1.3.4 1.6.7 3.3zm2.6-1.6c.2 1 .3 2.1.4 3.2l-2.4 1.9c-.1-1.5-.2-2.7-.3-3.1zm-.2 11.3a7.3 7.3 0 0 1-2 2.1 27.1 27.1 0 0 0 .3-3.4l2.5-1.8a7.9 7.9 0 0 1-.6 3.4zm.8-3.8l-2.5 1.9c0-1.3 0-2.6-.1-3.7l2.4-1.9a27.6 27.6 0 0 1 .5 4zm-.2-7.9l2.5-2.5a26.8 26.8 0 0 1 .5 3.2 28.7 28.7 0 0 1-2.5 2.5c.1-.8-.1-1.9-.2-2.9zm2.6 4.9a7.9 7.9 0 0 1-2 2.6 30.4 30.4 0 0 0-.2-3.7l2.5-2.4a8.3 8.3 0 0 1 0 3.8zm2.5-7.6a8 8 0 0 1-1.7 3 28.6 28.6 0 0 0-.6-3.2 27.4 27.4 0 0 0 2.2-2.8 7.6 7.6 0 0 1 .4 3.3zm1.3-7a7.6 7.6 0 0 1-1.1 2.8 27.3 27.3 0 0 0-.9-2.9 25.2 25.2 0 0 0 1.6-2.7 7.3 7.3 0 0 1 .7 3.1zM54.4 107.7zM57 6.9zM105.6 58.4v0zM6.8 56.4v-.9.9z" fill="#1F8A70" style="fill: rgb(31, 138, 112);"></path>
        </g>
    </g>
</svg>