<svg xmlns="http://www.w3.org/2000/svg" version="1.1" xmlns:xlink="http://www.w3.org/1999/xlink" xmlns:svgjs="http://svgjs.com/svgjs" height="276.0333618164063" width="254.4400291442871">
    <defs id="SvgjsDefs1025"></defs>
    <g id="SvgjsG1026" rel="mainfill" name="main_text" xmlns:name="main_text" transform="translate(66.52001166343689,-104.34203033447264)" fill="#ffffff">
        <path d="M8.90 220.73Q8.90 221.58 8.36 222.18Q7.82 222.79 6.72 222.79Q5.64 222.79 5.64 221.42Q5.64 220.44 6.16 219.84Q6.68 219.23 7.92 219.20Q8.48 219.17 8.69 219.49Q8.90 219.82 8.90 220.73M12.68 234.65Q12.16 235.04 11.51 235.52Q10.86 235.99 10.19 236.48Q9.52 236.97 8.85 237.42Q8.18 237.88 7.60 238.24Q6.26 239.05 5.28 239.54Q4.30 240.03 3.60 240.29Q2.90 240.55 2.46 240.64Q2.02 240.72 1.79 240.72Q1.34 240.72 1.08 240.55Q0.81 240.39 0.68 240.16Q0.55 239.93 0.52 239.66Q0.49 239.38 0.49 239.15Q0.49 238.89 0.57 238.40Q0.65 237.91 0.80 237.33Q0.95 236.74 1.12 236.09Q1.30 235.44 1.50 234.88Q2.25 232.63 3.02 230.42Q3.78 228.20 4.34 226.57Q4.43 226.28 4.74 225.95Q5.05 225.62 5.64 225.40Q6.00 225.26 6.34 225.22Q6.68 225.17 6.91 225.17Q7.17 225.17 7.17 225.53Q7.17 225.66 7.03 226.08Q6.88 226.50 6.67 227.09Q6.45 227.68 6.21 228.38Q5.97 229.08 5.74 229.73Q5.35 230.90 4.89 232.22Q4.43 233.55 4.04 234.70Q3.65 235.86 3.39 236.71Q3.13 237.56 3.13 237.85Q3.13 238.37 3.19 238.70Q3.26 239.02 3.81 239.02Q4.53 239.02 5.79 238.42Q7.04 237.82 8.36 236.98Q9.68 236.15 10.86 235.29Q12.03 234.43 12.62 233.87L12.68 234.65L12.68 234.65ZM32.50 235.99Q31.69 236.54 30.97 237.03Q30.35 237.46 29.70 237.88Q29.05 238.30 28.66 238.57Q26.99 239.64 25.84 240.20Q24.68 240.75 24.19 240.75Q23.80 240.75 23.72 240.46Q23.63 240.16 23.63 239.84Q23.63 239.67 23.77 239.17Q23.90 238.66 24.12 237.95Q24.35 237.23 24.61 236.38Q24.87 235.53 25.17 234.65Q25.46 233.74 25.74 232.84Q26.01 231.95 26.23 231.20Q26.44 230.45 26.59 229.88Q26.73 229.31 26.76 228.98Q26.76 228.82 26.80 228.67Q26.83 228.52 26.63 228.52Q26.44 228.52 25.93 228.88Q25.43 229.24 25.07 229.60Q24.48 230.19 23.59 231.18Q22.69 232.18 21.55 233.74Q21.22 234.20 20.81 234.85Q20.41 235.50 20.05 236.12Q19.69 236.74 19.43 237.21Q19.17 237.69 19.10 237.75Q18.94 237.91 18.63 238.17Q18.32 238.44 17.96 238.70Q17.60 238.96 17.25 239.15Q16.89 239.35 16.59 239.35Q16.46 239.35 16.46 239.22Q16.46 239.09 16.50 238.94Q16.53 238.79 16.59 238.53Q16.66 238.27 16.81 237.85Q16.95 237.42 17.18 236.77L19.23 230.90Q19.82 229.21 19.89 228.59Q19.89 228.33 19.72 228.30Q19.17 228.30 17.05 230.48Q16.10 231.43 15.29 232.55Q14.47 233.68 13.79 234.78Q13.11 235.89 12.57 236.90Q12.03 237.91 11.70 238.63Q11.57 238.79 11.33 239.01Q11.08 239.22 10.79 239.41Q10.50 239.61 10.19 239.74Q9.88 239.87 9.58 239.87Q9.36 239.87 9.29 239.72Q9.23 239.58 9.23 239.38Q9.23 239.25 9.29 238.99Q9.36 238.73 9.47 238.39Q9.58 238.04 9.71 237.67Q9.85 237.29 9.98 236.97Q10.30 236.09 10.56 235.37Q10.82 234.65 11.02 234.02Q11.21 233.38 11.39 232.78Q11.57 232.18 11.77 231.52Q11.87 231.17 12.01 230.61Q12.16 230.06 12.34 229.49Q12.52 228.92 12.68 228.41Q12.84 227.91 12.97 227.61Q13.17 227.12 13.55 226.75Q13.92 226.37 14.34 226.10Q14.77 225.82 15.16 225.69Q15.55 225.56 15.78 225.56Q16.01 225.56 16.01 225.92Q15.97 226.18 15.76 226.89Q15.55 227.61 15.32 228.30Q15.03 229.21 14.67 230.25Q14.31 231.30 13.95 232.21Q13.56 233.28 13.14 234.33L13.27 234.43Q13.59 233.87 14.10 233.17Q14.60 232.47 15.18 231.74Q15.75 231.00 16.35 230.32Q16.95 229.63 17.51 229.11Q19.17 227.55 20.41 226.57Q21.65 225.59 22.40 225.62Q22.62 225.62 22.77 225.75Q22.92 225.88 22.92 226.24Q22.92 226.60 22.64 227.55Q22.36 228.49 22.00 229.57Q21.65 230.64 21.29 231.67Q20.93 232.70 20.73 233.25L20.83 233.25Q22.59 231.17 24.01 229.75Q25.43 228.33 26.50 227.50Q27.58 226.67 28.31 226.31Q29.05 225.95 29.44 225.95Q29.67 225.95 29.75 226.13Q29.83 226.31 29.83 226.57Q29.83 226.86 29.68 227.47Q29.54 228.07 29.29 228.92Q29.05 229.76 28.74 230.77Q28.43 231.78 28.10 232.86Q28.00 233.25 27.74 234.00Q27.48 234.75 27.24 235.55Q26.99 236.35 26.80 237.03Q26.60 237.72 26.60 237.91Q26.60 238.14 26.63 238.27Q26.67 238.40 26.89 238.40Q27.25 238.40 27.86 238.14Q28.46 237.88 29.16 237.49Q29.86 237.10 30.66 236.59Q31.46 236.09 32.21 235.60L32.50 235.99L32.50 235.99ZM46.06 228.13Q46.06 229.67 45.41 231.28Q44.76 232.89 43.80 234.36Q42.84 235.83 41.73 237.02Q40.62 238.21 39.67 238.86Q38.83 239.45 37.80 239.95Q36.77 240.46 35.76 240.46Q35.11 240.46 34.87 240.20Q34.62 239.93 34.62 239.61Q34.62 238.92 35.00 238.14Q35.37 237.36 35.96 236.61Q36.54 235.86 37.28 235.13Q38.01 234.39 38.76 233.81Q40.10 232.76 41.22 232.06Q42.35 231.36 43.26 230.87Q43.42 230.35 43.42 229.96Q43.42 229.57 43.42 229.11Q43.42 228.36 43.26 227.89Q43.10 227.42 42.82 227.14Q42.54 226.86 42.20 226.76Q41.86 226.67 41.47 226.67Q40.72 226.67 39.59 227.38Q38.47 228.10 37.00 229.67Q36.67 230.42 36.27 231.51Q35.86 232.60 35.39 233.92Q34.91 235.24 34.38 236.77Q33.84 238.30 33.28 239.90Q32.76 241.37 32.26 242.82Q31.75 244.27 31.31 245.59Q30.87 246.91 30.51 248.04Q30.15 249.16 29.93 249.98Q29.89 250.14 29.88 250.46Q29.86 250.79 29.80 251.12Q29.73 251.41 29.52 251.80Q29.31 252.19 28.75 252.65Q28.04 253.20 27.29 253.20Q27.03 253.20 26.83 253.01Q26.63 252.81 26.63 252.36Q26.63 252.06 26.76 251.43Q26.89 250.79 27.35 249.65Q28.20 247.30 29.08 244.99Q29.83 243.00 30.69 240.70Q31.56 238.40 32.31 236.41Q32.73 235.27 33.07 234.33Q33.41 233.38 33.72 232.49Q34.03 231.59 34.38 230.66Q34.72 229.73 35.11 228.59Q35.47 227.64 35.79 226.65Q36.12 225.66 36.38 225.40Q36.87 224.91 37.47 224.63Q38.08 224.35 38.24 224.35Q38.37 224.35 38.45 224.37Q38.53 224.38 38.53 224.55Q38.53 224.65 38.44 224.99Q38.34 225.33 38.19 225.84Q38.04 226.34 37.83 226.93Q37.62 227.51 37.42 228.04L37.59 228.07Q38.17 227.48 38.94 226.91Q39.71 226.34 40.51 225.88Q41.30 225.43 42.05 225.15Q42.80 224.87 43.39 224.87Q44.76 224.87 45.41 225.59Q46.06 226.31 46.06 228.13M43.03 231.98Q42.77 232.08 42.30 232.32Q41.83 232.57 41.27 232.91Q40.72 233.25 40.11 233.69Q39.51 234.13 39.02 234.62Q38.60 235.04 38.17 235.50Q37.75 235.96 37.42 236.45Q37.10 236.94 36.89 237.42Q36.67 237.91 36.67 238.44Q36.67 239.02 37.59 239.02Q38.04 239.02 38.60 238.78Q39.15 238.53 39.74 237.95Q40.10 237.59 40.57 237.00Q41.04 236.41 41.52 235.65Q41.99 234.88 42.40 233.95Q42.80 233.02 43.03 231.98ZM59.79 236.61Q59.79 236.74 58.94 237.36Q58.09 237.98 56.74 238.68Q55.39 239.38 53.72 239.93Q52.06 240.49 50.43 240.49Q48.38 240.49 47.35 239.51Q46.32 238.53 46.32 236.41Q46.32 235.04 47.09 233.06Q47.86 231.07 49.55 229.05Q50.53 227.87 51.56 227.03Q52.58 226.18 53.53 225.66Q54.47 225.13 55.31 224.89Q56.14 224.65 56.72 224.65Q57.67 224.65 58.03 224.89Q58.39 225.13 58.39 225.75Q58.39 226.54 57.29 227.79Q56.20 229.05 54.47 230.68Q53.79 231.33 52.89 232.14Q52.00 232.96 51.21 233.71Q50.27 234.56 49.32 235.44Q49.19 237.49 50.01 238.26Q50.82 239.02 52.32 239.02Q53.59 239.02 54.90 238.55Q56.20 238.08 57.25 237.52Q58.48 236.87 59.63 235.99Q59.76 236.19 59.79 236.28Q59.82 236.38 59.79 236.61M55.62 227.22Q55.62 226.70 55.32 226.57Q55.03 226.44 54.67 226.44Q54.05 226.44 53.12 226.93Q52.19 227.42 51.38 228.46Q51.02 228.92 50.66 229.57Q50.30 230.22 49.99 231.00Q49.68 231.78 49.47 232.65Q49.26 233.51 49.23 234.36Q49.88 233.81 50.56 233.22Q51.15 232.70 51.83 232.08Q52.52 231.46 53.14 230.81Q54.21 229.70 54.91 228.82Q55.62 227.94 55.62 227.22ZM72.99 236.28Q72.44 236.74 71.36 237.44Q70.29 238.14 68.95 238.89Q66.93 240.03 65.79 240.37Q64.65 240.72 64.16 240.72Q63.63 240.72 63.55 240.41Q63.47 240.10 63.47 239.84Q63.47 239.61 63.52 239.23Q63.57 238.86 63.72 238.27Q63.86 237.69 64.12 236.84Q64.38 235.99 64.81 234.85Q65.04 234.26 65.36 233.41Q65.69 232.57 66.03 231.74Q66.37 230.90 66.67 230.22Q66.96 229.54 67.09 229.24L66.99 229.11Q66.50 229.27 65.79 229.52Q65.07 229.76 64.03 229.76Q63.54 229.76 62.82 229.49Q62.10 229.21 61.68 228.36L61.42 228.56Q61.22 228.72 61.09 228.80Q60.96 228.88 60.80 228.88Q60.57 228.88 60.57 228.59Q60.57 228.43 60.72 228.26Q60.86 228.10 61.09 227.91L61.48 227.58Q61.42 227.16 61.45 226.42Q61.48 225.69 61.71 224.96Q61.94 224.22 62.41 223.68Q62.89 223.15 63.73 223.15Q64.09 223.15 64.43 223.34Q64.78 223.54 64.78 224.06Q64.78 224.78 64.45 225.64Q64.12 226.50 63.73 226.99Q63.77 227.42 63.94 227.66Q64.12 227.91 64.37 228.04Q64.61 228.17 64.87 228.20Q65.13 228.23 65.30 228.23Q65.75 228.23 66.32 228.15Q66.89 228.07 67.71 227.71Q68.17 227.48 68.59 227.30Q69.01 227.12 69.37 227.12Q69.76 227.12 69.76 227.48Q69.76 227.71 69.67 228.07Q69.57 228.43 69.44 228.82Q69.31 229.21 69.16 229.58Q69.01 229.96 68.92 230.19Q68.59 231.00 68.13 232.22Q67.68 233.45 67.27 234.65Q66.86 235.86 66.57 236.77Q66.28 237.69 66.28 237.88Q66.28 238.44 66.47 238.52Q66.67 238.60 67.12 238.60Q67.51 238.60 68.15 238.35Q68.79 238.11 69.54 237.73Q70.29 237.36 71.12 236.87Q71.95 236.38 72.70 235.89L72.99 236.28L72.99 236.28ZM80.68 220.73Q80.68 221.58 80.15 222.18Q79.61 222.79 78.50 222.79Q77.42 222.79 77.42 221.42Q77.42 220.44 77.95 219.84Q78.47 219.23 79.71 219.20Q80.26 219.17 80.47 219.49Q80.68 219.82 80.68 220.73M84.47 234.65Q83.94 235.04 83.29 235.52Q82.64 235.99 81.97 236.48Q81.30 236.97 80.64 237.42Q79.97 237.88 79.38 238.24Q78.04 239.05 77.07 239.54Q76.09 240.03 75.39 240.29Q74.69 240.55 74.25 240.64Q73.81 240.72 73.58 240.72Q73.12 240.72 72.86 240.55Q72.60 240.39 72.47 240.16Q72.34 239.93 72.31 239.66Q72.27 239.38 72.27 239.15Q72.27 238.89 72.36 238.40Q72.44 237.91 72.58 237.33Q72.73 236.74 72.91 236.09Q73.09 235.44 73.28 234.88Q74.03 232.63 74.80 230.42Q75.57 228.20 76.12 226.57Q76.22 226.28 76.53 225.95Q76.84 225.62 77.42 225.40Q77.78 225.26 78.13 225.22Q78.47 225.17 78.70 225.17Q78.96 225.17 78.96 225.53Q78.96 225.66 78.81 226.08Q78.66 226.50 78.45 227.09Q78.24 227.68 78.00 228.38Q77.75 229.08 77.52 229.73Q77.13 230.90 76.67 232.22Q76.22 233.55 75.83 234.70Q75.44 235.86 75.18 236.71Q74.91 237.56 74.91 237.85Q74.91 238.37 74.98 238.70Q75.04 239.02 75.60 239.02Q76.32 239.02 77.57 238.42Q78.83 237.82 80.15 236.98Q81.47 236.15 82.64 235.29Q83.81 234.43 84.40 233.87L84.47 234.65L84.47 234.65ZM99.56 236.28Q99.01 236.74 97.95 237.39Q96.89 238.04 95.52 238.89Q93.76 239.93 92.62 240.36Q91.48 240.78 90.92 240.78Q90.50 240.78 90.40 240.55Q90.30 240.33 90.30 240.07Q90.30 239.74 90.43 239.14Q90.56 238.53 90.77 237.80Q90.99 237.07 91.23 236.25Q91.48 235.44 91.70 234.65Q91.87 234.07 92.01 233.59Q92.16 233.12 92.26 232.76Q92.39 232.37 92.49 232.05Q91.34 233.22 90.04 234.46Q88.93 235.50 87.53 236.81Q86.13 238.11 84.60 239.32Q83.94 239.84 83.49 240.02Q83.03 240.20 82.84 240.20Q82.18 240.20 82.18 239.28Q82.18 239.05 82.22 238.79Q82.25 238.53 82.36 238.14Q82.48 237.75 82.67 237.18Q82.87 236.61 83.23 235.73L84.99 231.26Q85.48 230.02 85.80 229.10Q86.13 228.17 86.39 227.61Q86.65 227.06 87.03 226.67Q87.40 226.28 87.81 226.03Q88.22 225.79 88.59 225.67Q88.96 225.56 89.19 225.56Q89.42 225.56 89.42 225.92Q89.39 226.18 89.31 226.67Q89.23 227.16 88.87 228.00L86.88 233.12Q86.78 233.41 86.59 233.89Q86.39 234.36 86.19 234.85Q86.00 235.34 85.87 235.71Q85.74 236.09 85.74 236.19Q85.74 236.32 85.75 236.45Q85.77 236.58 86.00 236.58Q86.36 236.58 87.04 236.09Q87.73 235.60 88.57 234.82Q89.32 234.13 89.91 233.59Q90.50 233.06 91.02 232.52Q91.54 231.98 92.05 231.38Q92.55 230.77 93.14 229.93Q93.33 229.57 93.51 229.10Q93.69 228.62 93.89 228.12Q94.08 227.61 94.34 227.14Q94.60 226.67 94.93 226.31Q95.52 225.72 96.06 225.53Q96.59 225.33 96.95 225.33Q97.11 225.33 97.29 225.44Q97.47 225.56 97.47 225.92Q97.47 226.37 97.13 227.19Q96.79 228.00 95.84 229.31Q95.55 229.96 95.24 230.94Q94.93 231.92 94.64 232.86Q94.54 233.22 94.28 234.03Q94.02 234.85 93.77 235.70Q93.53 236.54 93.33 237.25Q93.14 237.95 93.14 238.08Q93.14 238.63 93.50 238.63Q94.12 238.63 94.80 238.39Q95.48 238.14 96.23 237.75Q96.98 237.36 97.75 236.87Q98.52 236.38 99.27 235.89L99.56 236.28L99.56 236.28ZM120.91 235.99Q120.10 236.54 119.38 237.03Q118.76 237.46 118.11 237.88Q117.46 238.30 117.07 238.57Q115.40 239.64 114.25 240.20Q113.09 240.75 112.60 240.75Q112.21 240.75 112.13 240.46Q112.05 240.16 112.05 239.84Q112.05 239.67 112.18 239.17Q112.31 238.66 112.53 237.95Q112.76 237.23 113.02 236.38Q113.28 235.53 113.58 234.65Q113.87 233.74 114.15 232.84Q114.43 231.95 114.64 231.20Q114.85 230.45 115.00 229.88Q115.14 229.31 115.18 228.98Q115.18 228.82 115.21 228.67Q115.24 228.52 115.04 228.52Q114.85 228.52 114.34 228.88Q113.84 229.24 113.48 229.60Q112.89 230.19 112.00 231.18Q111.10 232.18 109.96 233.74Q109.63 234.20 109.23 234.85Q108.82 235.50 108.46 236.12Q108.10 236.74 107.84 237.21Q107.58 237.69 107.51 237.75Q107.35 237.91 107.04 238.17Q106.73 238.44 106.37 238.70Q106.01 238.96 105.66 239.15Q105.30 239.35 105.00 239.35Q104.87 239.35 104.87 239.22Q104.87 239.09 104.91 238.94Q104.94 238.79 105.00 238.53Q105.07 238.27 105.22 237.85Q105.36 237.42 105.59 236.77L107.64 230.90Q108.23 229.21 108.30 228.59Q108.30 228.33 108.13 228.30Q107.58 228.30 105.46 230.48Q104.52 231.43 103.70 232.55Q102.89 233.68 102.20 234.78Q101.52 235.89 100.98 236.90Q100.44 237.91 100.11 238.63Q99.98 238.79 99.74 239.01Q99.49 239.22 99.20 239.41Q98.91 239.61 98.60 239.74Q98.29 239.87 98.00 239.87Q97.77 239.87 97.70 239.72Q97.64 239.58 97.64 239.38Q97.64 239.25 97.70 238.99Q97.77 238.73 97.88 238.39Q98.00 238.04 98.13 237.67Q98.26 237.29 98.39 236.97Q98.71 236.09 98.97 235.37Q99.23 234.65 99.43 234.02Q99.63 233.38 99.80 232.78Q99.98 232.18 100.18 231.52Q100.28 231.17 100.42 230.61Q100.57 230.06 100.75 229.49Q100.93 228.92 101.09 228.41Q101.26 227.91 101.39 227.61Q101.58 227.12 101.96 226.75Q102.33 226.37 102.75 226.10Q103.18 225.82 103.57 225.69Q103.96 225.56 104.19 225.56Q104.42 225.56 104.42 225.92Q104.38 226.18 104.17 226.89Q103.96 227.61 103.73 228.30Q103.44 229.21 103.08 230.25Q102.72 231.30 102.36 232.21Q101.97 233.28 101.55 234.33L101.68 234.43Q102.00 233.87 102.51 233.17Q103.02 232.47 103.59 231.74Q104.16 231.00 104.76 230.32Q105.36 229.63 105.92 229.11Q107.58 227.55 108.82 226.57Q110.06 225.59 110.81 225.62Q111.04 225.62 111.18 225.75Q111.33 225.88 111.33 226.24Q111.33 226.60 111.05 227.55Q110.77 228.49 110.42 229.57Q110.06 230.64 109.70 231.67Q109.34 232.70 109.14 233.25L109.24 233.25Q111.00 231.17 112.42 229.75Q113.84 228.33 114.91 227.50Q115.99 226.67 116.72 226.31Q117.46 225.95 117.85 225.95Q118.08 225.95 118.16 226.13Q118.24 226.31 118.24 226.57Q118.24 226.86 118.09 227.47Q117.95 228.07 117.70 228.92Q117.46 229.76 117.15 230.77Q116.84 231.78 116.51 232.86Q116.41 233.25 116.15 234.00Q115.89 234.75 115.65 235.55Q115.40 236.35 115.21 237.03Q115.01 237.72 115.01 237.91Q115.01 238.14 115.04 238.27Q115.08 238.40 115.31 238.40Q115.66 238.40 116.27 238.14Q116.87 237.88 117.57 237.49Q118.27 237.10 119.07 236.59Q119.87 236.09 120.62 235.60L120.91 235.99L120.91 235.99Z" fill="#ffffff" style="fill: rgb(255, 255, 255);"></path>
    </g>
    <g id="SvgjsG1027" rel="mainfill" name="slogan_text" xmlns:name="slogan_text" transform="translate(67.32001638412476,-71.09203033447264)" fill="#ffffff">
        <path d="M6.88 233.16C6.16 232.87 3.53 232.48 3.53 231.39C3.53 230.58 4.51 230.35 5.10 230.35C5.64 230.35 6.29 230.51 6.63 230.83C6.84 231.05 6.93 231.19 7.00 231.37C7.09 231.60 7.15 231.85 7.49 231.85L9.24 231.85C9.65 231.85 9.76 231.78 9.76 231.35C9.76 228.99 7.27 227.95 5.00 227.95C2.76 228.04 0.64 229.18 0.64 231.51C0.64 233.79 2.31 234.50 4.12 235.08C5.64 235.56 7.23 235.58 7.23 236.58C7.23 237.58 6.45 237.80 5.48 237.80C4.82 237.80 4.08 237.64 3.72 237.21C3.49 236.94 3.40 236.70 3.38 236.47C3.35 236.02 3.15 235.97 2.74 235.97L1.00 235.97C0.59 235.97 0.48 236.06 0.48 236.47C0.48 238.98 3.06 240.27 5.30 240.27C8.06 240.27 10.06 239.05 10.06 236.51C10.06 234.07 8.17 233.55 6.88 233.16ZM20.13 228.22L11.82 228.22C11.41 228.22 11.30 228.41 11.30 228.74L11.30 230.22C11.30 230.54 11.41 230.74 11.82 230.74L14.58 230.74L14.58 239.48C14.58 239.89 14.77 240 15.10 240L16.87 240C17.19 240 17.39 239.89 17.39 239.48L17.39 230.74L20.13 230.74C20.54 230.74 20.65 230.54 20.65 230.22L20.65 228.74C20.65 228.41 20.54 228.22 20.13 228.22ZM30.98 237.49L25.27 237.49L25.27 235.13L30.07 235.13C30.48 235.13 30.59 234.93 30.59 234.61L30.59 233.21C30.59 232.89 30.48 232.69 30.07 232.69L25.27 232.69L25.27 230.74L30.68 230.74C31.09 230.74 31.20 230.54 31.20 230.22L31.20 228.74C31.20 228.41 31.09 228.22 30.68 228.22L22.96 228.22C22.55 228.22 22.44 228.41 22.44 228.74L22.44 239.48C22.44 239.80 22.55 240 22.96 240L30.98 240C31.39 240 31.50 239.80 31.50 239.48L31.50 238.01C31.50 237.69 31.39 237.49 30.98 237.49ZM38.22 228.22L34.19 228.22C33.77 228.22 33.67 228.41 33.67 228.74L33.67 239.48C33.67 239.89 33.86 240 34.19 240L35.96 240C36.28 240 36.48 239.89 36.48 239.48L36.48 236.51L38.20 236.51C41.26 236.51 42.91 234.86 42.91 232.37C42.91 229.90 41.30 228.22 38.22 228.22ZM38.20 234.09L36.48 234.09L36.48 230.74L38.20 230.74C39.59 230.74 40.20 231.49 40.20 232.43C40.20 233.32 39.59 234.09 38.20 234.09ZM58.16 233.89C58.33 233.82 59.47 233.25 59.47 231.44C59.47 229.76 58.22 228.20 55.30 228.20L50.29 228.20C49.87 228.20 49.77 228.40 49.77 228.72L49.77 239.48C49.77 239.80 49.87 240 50.29 240L55.55 240C58.04 240 59.81 238.84 59.81 236.56C59.81 234.63 58.31 233.95 58.16 233.89ZM55.59 237.46L52.58 237.46L52.58 230.72L55.30 230.72C56.23 230.72 56.79 230.92 56.79 231.73C56.79 232.43 56.34 232.80 55.30 232.80L55.30 232.80L55.07 232.80C54.65 232.80 54.55 233.00 54.55 233.32L54.55 234.68C54.55 235.00 54.65 235.20 55.07 235.20L55.48 235.20C56.34 235.20 56.96 235.45 56.96 236.29C56.96 237.10 56.46 237.46 55.59 237.46ZM71.04 228.22L69.11 228.22C68.69 228.22 68.52 228.27 68.28 228.75L66.26 232.60L64.16 228.75C63.91 228.27 63.73 228.22 63.32 228.22L61.26 228.22C60.92 228.22 60.89 228.52 60.98 228.72L64.81 235.58L64.81 239.48C64.81 239.89 64.99 240 65.33 240L67.12 240C67.44 240 67.64 239.89 67.64 239.48L67.64 235.58L71.33 228.72C71.42 228.52 71.38 228.22 71.04 228.22ZM83.29 233.16C82.57 232.87 79.94 232.48 79.94 231.39C79.94 230.58 80.93 230.35 81.52 230.35C82.05 230.35 82.70 230.51 83.04 230.83C83.25 231.05 83.34 231.19 83.41 231.37C83.50 231.60 83.56 231.85 83.90 231.85L85.65 231.85C86.06 231.85 86.17 231.78 86.17 231.35C86.17 228.99 83.68 227.95 81.41 227.95C79.17 228.04 77.06 229.18 77.06 231.51C77.06 233.79 78.72 234.50 80.53 235.08C82.05 235.56 83.65 235.58 83.65 236.58C83.65 237.58 82.86 237.80 81.89 237.80C81.23 237.80 80.50 237.64 80.14 237.21C79.90 236.94 79.81 236.70 79.80 236.47C79.76 236.02 79.56 235.97 79.15 235.97L77.42 235.97C77.00 235.97 76.90 236.06 76.90 236.47C76.90 238.98 79.47 240.27 81.71 240.27C84.47 240.27 86.48 239.05 86.48 236.51C86.48 234.07 84.58 233.55 83.29 233.16ZM96.54 228.22L88.23 228.22C87.82 228.22 87.71 228.41 87.71 228.74L87.71 230.22C87.71 230.54 87.82 230.74 88.23 230.74L90.99 230.74L90.99 239.48C90.99 239.89 91.19 240 91.51 240L93.28 240C93.60 240 93.80 239.89 93.80 239.48L93.80 230.74L96.54 230.74C96.95 230.74 97.06 230.54 97.06 230.22L97.06 228.74C97.06 228.41 96.95 228.22 96.54 228.22ZM107.39 237.49L101.68 237.49L101.68 235.13L106.48 235.13C106.89 235.13 107.00 234.93 107.00 234.61L107.00 233.21C107.00 232.89 106.89 232.69 106.48 232.69L101.68 232.69L101.68 230.74L107.09 230.74C107.50 230.74 107.61 230.54 107.61 230.22L107.61 228.74C107.61 228.41 107.50 228.22 107.09 228.22L99.37 228.22C98.96 228.22 98.85 228.41 98.85 228.74L98.85 239.48C98.85 239.80 98.96 240 99.37 240L107.39 240C107.80 240 107.91 239.80 107.91 239.48L107.91 238.01C107.91 237.69 107.80 237.49 107.39 237.49ZM114.63 228.22L110.60 228.22C110.19 228.22 110.08 228.41 110.08 228.74L110.08 239.48C110.08 239.89 110.28 240 110.60 240L112.37 240C112.69 240 112.89 239.89 112.89 239.48L112.89 236.51L114.61 236.51C117.67 236.51 119.32 234.86 119.32 232.37C119.32 229.90 117.71 228.22 114.63 228.22ZM114.61 234.09L112.89 234.09L112.89 230.74L114.61 230.74C116.01 230.74 116.62 231.49 116.62 232.43C116.62 233.32 116.01 234.09 114.61 234.09Z" fill="#ffffff" style="fill: rgb(255, 255, 255);"></path>
    </g>
    <g id="SvgjsG1028" transform="translate(9.08970832824707e-7,0) scale(2.1)" rel="mainfill" name="outline_container" xmlns:name="outlineContainer_mainfill" fill="#7E9290">
        <g fill="#7E9290">
            <path d="M61.2 128.8a24.6 24.6 0 0 0-4.3-5.3l-5.8-5.7-2-2.2c-1.2-1.4-2.6-2.7-3.9-4l-3.4-3.4-5-5.1-4.7-4.9L28 94l-9.8-9.9a37.1 37.1 0 0 0-3.7-3.5l-.9-.8c-1.9-1.9-4-3.7-5.8-5.6l-3.8-4 1-1 1.3-1.3L8.2 70l.6.6 9 8.5 7.6 7 4.1 3.7 1.7 1.5A28.7 28.7 0 0 1 35 95l2.6 3c1.8 2.1 3.3 4 5.4 6.2l1.5 1.7c1.6 1.8 3.2 3.7 5 5.4s3.4 3.5 5.2 5.2a32 32 0 0 0 5.4 4.2c1.5.8 2 .8 1.1-.7a24.6 24.6 0 0 0-4.3-5.3l-5.8-5.7-2-2.2c-1.2-1.4-2.6-2.7-3.9-4l-3.4-3.4-5-5.1-4.7-4.9-4.1-4.2-9.8-9.9a36.9 36.9 0 0 0-3.7-3.5l-.9-.8-5.3-5.2 2.3-2.4 11.7-12c2-2 4.2-4.1 6.2-5.9s4.2-3.9 6-5.8l6.9-7.3 9.3-10 .8-.9 3-3.2c2-2.1 3.9-4.2 6-6.3a47 47 0 0 0 4.2 4l1.1 1a55.8 55.8 0 0 0 5.6 4.8 8 8 0 0 0-1-1.7L67 15.5a83.3 83.3 0 0 0-5.7-6.2l-.5-.5-.5.5-2.3 2.3-6.3 6.5-5.9 6c-2.2 2.3-4.3 4.6-6.7 6.8l-.8.9a54.4 54.4 0 0 1-6.5 6.2l-4.9 4.6-3.9 4a34.4 34.4 0 0 0-2.6 2.8L18.8 51c-2.5 2.5-4.9 5-7.1 7.6l-2.9 3-2.3 2.3L4 61.4l1-1 5.7-5.7 11.7-12c2-2 4.2-4.1 6.2-5.9s4.2-3.9 6-5.8l6.9-7.3 9.3-10 .8-.9 3-3.2c2-2.1 3.9-4.2 6-6.3a47.1 47.1 0 0 0 4.2 4l1.1 1a55.8 55.8 0 0 0 5.7 4.7 8.1 8.1 0 0 0-1-1.7L67 6.7A83.3 83.3 0 0 0 61.3.5l-.5-.5-.5.5L58 2.8l-6.3 6.5-5.9 6c-2.2 2.3-4.3 4.6-6.7 6.8l-.8.9a54.6 54.6 0 0 1-6.5 6.2l-4.9 4.6-3.9 4a34 34 0 0 0-2.6 2.8l-1.6 1.7c-2.5 2.5-4.9 5-7.1 7.6l-2.9 3-6.9 6.6-1.7 1.7-.2.2.2.2 4.2 4.3-2.5 2.4L.2 70l-.2.2.2.2c2.7 2.8 5.4 5.5 8.1 8.3l.6.6 9 8.5 7.6 7 4.1 3.7 1.7 1.5a28.3 28.3 0 0 1 3.7 3.7l2.6 3c1.8 2.1 3.3 4 5.4 6.2l1.5 1.7c1.6 1.8 3.2 3.7 5 5.4s3.4 3.5 5.2 5.2a31.8 31.8 0 0 0 5.4 4.2c1.4.9 2 .9 1.1-.6z" fill="#7E9290" style="fill: rgb(126, 146, 144);"></path>
            <path d="M119.9 71.4a10.5 10.5 0 0 1-1.4.9c-.4 0-1.3.9-2.1 1.6s-3.9 3.6-5.7 5.6l-2.7 2.8c-2.7 2.6-5 5.3-7.7 7.9s-4.7 4.9-7 7.4l-1.5 1.5a25.9 25.9 0 0 0-3.6 3.7c-2.3 2.3-4.1 4.5-6.1 6.7a13.9 13.9 0 0 1-1.6 1.5 75.8 75.8 0 0 0-6.2 5.8c-2.3 2.3-4.5 4.7-6.9 7a32.5 32.5 0 0 0-3.4 3.6l-2 2.4c-1.1 1.6-.6 2.1.9 1.2l1.1-.7a20 20 0 0 0 4-3.2c1.5-1.2 3.2-3.3 4.8-4.3l1-1c.7-1.1 2.2-2.5 3.2-3.7a8.1 8.1 0 0 1 2-1.9l2.7-3.7a24.5 24.5 0 0 1 4.3-4.4l1.5-1.2 5.4-5.2 3.2-3.1 1.4-1.5a13.8 13.8 0 0 0 2-2l.8-.8a16.3 16.3 0 0 0 2.4-2.5l1.6-1.6 5-4.7 3-3 3-2.9c3-3.1 5.1-5.5 5.5-7l.3-.7c.2-1.2-.3-1-1.2-.5zM92 43.1a39.9 39.9 0 0 0 2.8 3c1.7 1.5 3.4 3.1 5 4.3s2.6 1.4 2 .3-2.9-4.7-6-8a40.8 40.8 0 0 0-6.7-6.2l-1.5-1.2c-1.9-1.5-3.4-2.6-4-2.4s-.7-.4-1.2-.7a26.7 26.7 0 0 0 3.2 4zM67.3 114.9a32.3 32.3 0 0 0-3.4 3.6l-1.9 2.4c-1.1 1.6-.6 2.1.9 1.2l1.1-.7a20 20 0 0 0 4-3.2c1.5-1.2 3.2-3.3 4.8-4.3l1-1c.7-1.1 2.2-2.5 3.2-3.7a8.1 8.1 0 0 1 2-1.9l2.7-3.7a24.5 24.5 0 0 1 4.3-4.4l1.3-1.2 5.4-5.2 3.2-3.1 1.4-1.5a13.8 13.8 0 0 0 2-2l.8-.8a16.4 16.4 0 0 0 2.4-2.5l1.6-1.6 5-4.7 3-3 3-2.9c3-3.1 5.1-5.5 5.5-7l.3-.7c.6-1 .1-.9-.8-.3a10.1 10.1 0 0 1-1.4.9c-.4 0-1.3.9-2.1 1.6s-3.9 3.6-5.7 5.6l-2.7 2.8c-2.7 2.6-5 5.3-7.7 7.9s-4.7 4.9-7 7.4L92 90.4a25.8 25.8 0 0 0-3.9 3.6c-2.3 2.3-4.1 4.5-6.1 6.7a13.5 13.5 0 0 1-1.6 1.5 76.9 76.9 0 0 0-6.2 5.8c-2.3 2.3-4.5 4.7-6.9 6.9zM92 34.3a40.1 40.1 0 0 0 2.8 3c1.7 1.5 3.4 3.1 5 4.3s2.6 1.4 2 .3-2.9-4.7-6-8a40.7 40.7 0 0 0-6.7-6.2l-1.5-1.2c-1.9-1.5-3.4-2.6-4-2.4s-.7-.4-1.2-.7a26.8 26.8 0 0 0 3.2 4z" fill="#7E9290" style="fill: rgb(126, 146, 144);"></path>
        </g>
    </g>
</svg>