<svg xmlns="http://www.w3.org/2000/svg" version="1.1" xmlns:xlink="http://www.w3.org/1999/xlink" xmlns:svgjs="http://svgjs.com/svgjs" height="249.61759643554686" width="247.88166503906248">
    <defs id="SvgjsDefs1033"></defs>
    <g id="SvgjsG1034" transform="translate(0.13923069834709167,0.007328510284423828) scale(2.4)" rel="inversefill" name="filled_container" xmlns:name="filledContainer_inversefill" fill="#225378">
        <g fill="#225378">
            <path d="M42.4 103v.3c.3.3.7.2 1 .2s-.6-.5-1-.5zm2 .1h-.3c.2.9.8.4 1.3.5l-.8-.5zm-3.6-.1l.3-.3a.5.5 0 0 0-.3-.4.9.9 0 0 0-.9.4c.2.4.6.2.9.3zm6.5.4a.7.7 0 0 0 .1-.6l-.2-.3H47a.5.5 0 0 1-.5.3l.2.8-.2.2v.2h1.3v-.2h-.1z" fill="#225378" style="fill: rgb(34, 83, 120);"></path>
            <path d="M103.1 54.8v-2a4.1 4.1 0 0 0-.2-2v-1.6h-.2c-.4-.3 0-.7 0-1s.2-.9-.5-1h-.5c-.5 0-.9-.1-.9-.6s.4-.5.8-.7l.4-.3.7-.3c0-.7.2-1.4-.2-2.1v-1l-.2-1a2.6 2.6 0 0 0-.4-2.1l-.8-2.5a2 2 0 0 0-.6-1.5l-.2-.3v-1.1l-.3-.5v-.4c-.4-.5-.3-1.2-.6-1.7h-.3a4.4 4.4 0 0 0-.5-1.5.2.2 0 0 0-.1-.2c-.2-.6-.7-1.1-.7-1.8L97 27c-.1-.6-.5-.9-.8-1.3l-.2-.2a4.2 4.2 0 0 0-.9-1.5c-.5-.7-.8-1.6-1.7-1.8a.5.5 0 0 0 0-.2c-.9-.8-1-2.1-2-2.8V19a2.3 2.3 0 0 0-1-1.1l-.2-.3c0-.7-.6-.8-1-1s-.5-.6-.5-1H88l-.8-1c-.1-.5-.6-.6-.9-.8v-.5a1.7 1.7 0 0 1-1-.3v-.2l-.4-.7c-.5-.1-.8-.6-1.3-.6a1.3 1.3 0 0 0-.8-.9h-.2l-.3-.3-.7-.5a3.8 3.8 0 0 0-1.5-1l-1.3-.5-.8-.2c-.4-.1-.5-.6-1-.5l-1.3-.8-.8-.5c-.5-.7-1.5-.7-1.9-1.5h-.2l-.2-.3a1.6 1.6 0 0 0-1-.4v-.3h-.2v-.2l-1-.3c-.9.1-1.6-.6-2.5-.5h-.5c-.5-.6-1.5.1-1.9-.7l-.7-.3c-.2-.1-.5-.3-.8-.3h-.7c-.5-.3-1.1-.2-1.6-.2l-2-.3a18.8 18.8 0 0 1-3.8-.5c0 .5.4.5.7.5v.5a1.7 1.7 0 0 0-1 .3c-.5-.5-1.2-.2-1.8-.5a.6.6 0 0 0-.4.5H53c-.2.2-.2.4-.5.6s.4-.3.2-.6a1.7 1.7 0 0 1-.7-.7.5.5 0 0 0 .1-.3h.9l.5-.3c.6-.2 1.2.6 1.8 0V.3C54.2-.3 53 .2 51.8 0h-.2a1.5 1.5 0 0 0 0 .2c-.6.2-1.3-.2-1.8.3a1.6 1.6 0 0 1-1-.2h-3V1a.9.9 0 0 0 .9.5h.1l-.5.5a.5.5 0 0 0-.5-.3c-.4.4 0 .7.3 1h.6l.6.8v.2l-.5.2a1.7 1.7 0 0 0-1-.2V4l-1.5-.5a1.2 1.2 0 0 1-.5-1.1c.4.2.8.4 1.2 0s.3-.7.1-1.1-.1.1-.1-.1l-.6-.3h.2c-.2-.3-.5-.2-.8-.3h-.2l-.7.2c-.2-.8-.9-.4-1.3-.6l-.3.3h-.4c-.4.3-1 .5-1.4.9h-2.2V.8h-1.5c-.2.1-.5 0-.5.3h-1c-.5-.1-.9.3-1.3.5-.5.4-1.2.5-1.4 1.2s-.9.1-1.3.3-1.2-.2-1.5.5-.5.3-.6.7a1 1 0 0 0-.5.8l-.8.3-.7.3-.6.4H25c-.7-.2-1.1.2-1.5.7s-.7.3-.8.8a3.3 3.3 0 0 0-1 1l-.3.2c-.5 0-.7.7-1.2.8h-1a1.8 1.8 0 0 0-.8 1.4v.2a10.4 10.4 0 0 0-1.8 1.8 1.2 1.2 0 0 0-.8.8.2.2 0 0 0 0 .2c-.7.6-1.5 1-1.8 1.9h-.2c0 .4-.2.7.2 1a.9.9 0 0 0 0 .2.6.6 0 0 0-.7.2 8.7 8.7 0 0 0-2.1 3.4v.3h-.5l-.3 1a.4.4 0 0 0 0 .2c-.3.3-.9.5-1 1.1l-.2.5-.5.8-.7 1a.1.1 0 0 0-.1.1 1.8 1.8 0 0 0-.8 1.3h-.2a3 3 0 0 1-.2 1.5.2.2 0 0 0 0 .2c-.7 0-.9.5-1.1 1.1s-1 1.8-1.2 2.8l-.7 1v.3a4.1 4.1 0 0 0-.8 1.8v.4a15.3 15.3 0 0 0-1 3.9L.8 45.3c-.4 1-.1 2.1-.3 3.1v.8a1.7 1.7 0 0 1-.1.4c-.1.2 0 .4-.2.6a1.4 1.4 0 0 0-.3 1c-.1.2 0 .3.2.3h.2c-.3.7 0 1.5-.2 2.2s.1.7.5.8a36.2 36.2 0 0 0 .1 4.3 1 1 0 0 0 .1.4l.5 3.2c-.2.9.3 1.7.3 2.5s.2.1.2.3v.5c-.1.3.2.5.3.7a1.8 1.8 0 0 0 .2 1c.1.2.4.4.3.7h.2v.5c.1.2.2.6.5.7v.3l.3.3.3 1v.8c-.1.2.1.3.2.4s.1.8.6 1l.9 1.4v.5l.3 1.3.2.2.2-.2a.2.2 0 0 0 0 .2c0 .5.3.7.6 1a1.4 1.4 0 0 0 .5.8c-.1.5.5.8.5 1.3a.3.3 0 0 1 0 .2l.5.8.2.8.5.2c.1.8.8 1.2 1.3 1.8h.3c.2-.5-.1-.8-.5-1s.1-.7-.1-1-.4-.6-.1-1a.7.7 0 0 0-.1-.7.4.4 0 0 0 0-.4h.2c.8 0 1 .7 1.5 1s.4.5.7.5v.7a.8.8 0 0 0 .5.8l.3.3h.3v.4c.3.2.4.9 1 .8h-.1a.8.8 0 0 0 0 .9h.1l.8 1c.5.2.6 1.3 1.5.7h.3l.5 1c.2-.2.4-.5.7-.2s.6 1.4 1.5 1.3l-.2.5c.8-.1 1 1 1.8.8s.1.8 0 1.3.3-.3.5-.3a.5.5 0 0 0 .3.5c.1.3.2.6.5.8l.5.7c-.3.2-.4.6-.6.9a.4.4 0 0 0-.1.4l-.2.2a.6.6 0 0 0-.3-.8 2 2 0 0 0-1.3-.2h-.2a.3.3 0 0 0 0-.2h-.3l-1.3-.2.8.8.8.7a2.8 2.8 0 0 0 1.6 1 .5.5 0 0 0 .5.2c.3.4.8.5 1.3.7h.2l.5.3 1.1.7h.9v.2l.3.3.5.3c.2.4.6.5 1 .6a1.1 1.1 0 0 0 1.1.5l.3.2 1.3.5h.2a1.9 1.9 0 0 0 .8.7h.2a3 3 0 0 0 1.6.5c.3.3.9.1 1.1.7s1 .4 1.5.2h1.3a3.7 3.7 0 0 0 2.3.5h.1c0-.7-.6-.6-1-.8l-.8-.3c.1-.4-.3-.4-.7-.4s.9.4 1.4.1h.7a.9.9 0 0 0 .3-.5v.7h-.5l-.2.3h2.5c-.1-.6-.5-.2-.7-.3s-.1-.8.3-1 .6-.6.9-.3 1.2.3 1.9.3a.9.9 0 0 1 .8.5h-.1v.2c.3-.1.4-.3.4-.5.3-.1.4-.4.6-.5s1 .2 1.5.2l.8.2.5-.2c.4-.1.9.5 1.2-.2h-2.7a.9.9 0 0 0 0-.2h-.5c-.3-.2-.5 0-.7.2s-.4-.3-.6-.4h-.2l-.9-.4V99l-.3-.2a48.2 48.2 0 0 0 7.7.6h1.6c-.1.3-.4.6 0 .9l.7-.3c.6-.6 1.4-.1 2-.2s0 .6.3.8.6.2.2.5-.5 0-.7.3l.5.3c.3-.4.5-.1.8 0s.1-.9.7-.3.6-.2.8-.4.3.7.3 1h.3c.1-.4.5-.6.5-1s.6-.1.7-.6-.8-.1-.2-.5.5.2.6.6 1.1.3 1.3-.5l.2.2a2.3 2.3 0 0 0-.5 1.4h-.1c-.4-.3-.8-.2-1.2.1l-.2.3h-.2a1.8 1.8 0 0 0-1.2.4c-.2-.1-.5.2-.6-.1h-.5a.7.7 0 0 1-.8 0h-.3l-.2.4c-.1-.1-.2-.2-.5-.1s-.1 1.1.8 1l.3.2a1.2 1.2 0 0 0 1-.2.6.6 0 0 0 .6-.2 3.1 3.1 0 0 0 1.8-.5h.5l.3-.2a7.1 7.1 0 0 0 2.7-.7h1.5a.9.9 0 0 0 .5-.5l.5-.2c.3.4.7.1 1 0l.6-.5a1 1 0 0 0 .7-.3h1.5c.3-.2.9-.1 1.1-.7l1.3-.6c.3 0 .5 0 .7-.2l.5-.5.5-.2 1.7-.8.2-.2v-.2l.5-.3.3-.2 1-.3.3-.3a.8.8 0 0 0 .6-.4l.7-.3c.1-.3.4-.5.2-.8s-.4 0-.7 0h-.1a.9.9 0 0 0-.1.5l-.7-.3H78c-.2-.3-.3-.7-.7-.9s.8-.5 1-1 0-.7.3-1h.2l.5.8v-.4h.2a.8.8 0 0 0 .2.7h-.4v.5c0 .2.5.4.8 0a.5.5 0 0 1-.3-.5.5.5 0 0 0 .5-.2h.2l.5-.3c.2.3.6.2.9.3-.6-.1-1 .5-1.5.7s-.3.7.1 1.1.8-.6 1.3-.8l.6-.7a1.1 1.1 0 0 0 .8-.5c.3 0 .5 0 .7-.3h.5l.3-.5 1.3-1a2.9 2.9 0 0 0 1.3-1.3.4.4 0 0 0 .3-.4c.4 0 .6-.5 1-.6l.2-.3v-.5a3.6 3.6 0 0 0 2-1.8l.5-.5.7-1.1.8-1 .4-.3c.4-.2.5-.6.6-1a.5.5 0 0 0 .5-.5 8.1 8.1 0 0 0 1.7-1.6 3.7 3.7 0 0 0 1.2-1.5.9.9 0 0 0 .3-.8.5.5 0 0 0 0-.8 4 4 0 0 1 .2-2.5l.3-.5V73a18.1 18.1 0 0 0 1.7-3.9l.3-.2.2-.8a4.2 4.2 0 0 0 .5-2.8v-.8l.2-.3.3-1v-.3a2.2 2.2 0 0 0 .3-1.5c.5-.7.2-1.5.3-2.3a2.5 2.5 0 0 0 .5-1.3l.3-.8v-.3l.5-1.5zM.8 58.4zm2.3-16zm74.5 53.2zm22.9-57.4zm-1.4 6.2a.7.7 0 0 0 1-.1h-.6c.4-.3 1.1-.1 1.3-.7v-.2c-.3-.3.1-.1.1-.1h.7a2.4 2.4 0 0 0 0 1.2l.3-.2c-.1.4-.3.7-.4 1.1s-1.3.3-1.9.2a1.4 1.4 0 0 0-.6.5l-.2-1.2c.2-.1-.2-.5.3-.4zm.2 4.7v-.6a.6.6 0 0 0 .7.1c-.2.4-.5.4-.7.5zm.5 5.6zm-6.6 23.6h-.7a.6.6 0 0 0-.5.4h-.1c0-.3-.2-.4-.4-.5l.5-.8a1.2 1.2 0 0 0 .4.7 1.6 1.6 0 0 0 .9.4s.1 0 .1.1zM82.1 89.7zm-57.3 2zm74.6-38.2h-.1v-.7a6.5 6.5 0 0 1 .1.7zm-.2 2.1h.2v.2h-.1zm.2-5h-.1V50c.2.2.2.4.1.6zm-.6-8.8h.2c-.2.3-.1.9-.5.9v-.4zm-1.9-11.5zm-.1 4.5h-.1l-.2-.2-.2-.7a1 1 0 0 1 .5 1zm-2.4-5.3zm-4.7-7.9v.2h.1zM88 19.9zm-7.4-8.7zM62.2 5.1h.1l-.8-.1zm-5.3-3.3V2a1.5 1.5 0 0 0 0-.3zm-5.8-.7a.8.8 0 0 0 .7.2h.1a1.8 1.8 0 0 1-.3.8h-.3a1.1 1.1 0 0 1-.4-.8zm-4.4 1v-.6h.9c-.2.2-.6.3-.9.6zm-5.8 2.2zm-1.4 1.2l-1.7.5h.1zm-6 1.6zm-3.9-.8zm-1.7 2.3zm-3.4 1.8zm-8.7 9.4zm-1.6-.2a.6.6 0 0 1 0 .4h-.1zm-1.5 3a4.6 4.6 0 0 0 0 .5 1.6 1.6 0 0 0-.2-.6zm-1.3-1.4c.4.1.5.4.8.7h-.8c0-.3.1-.5-.1-.8zm-.9 2.9zM8 31.9zM3.7 47.7zm1.2 22.1zm.5.3zm3.5 9.1zm.7-1.7a1.2 1.2 0 0 0-.2.8l-1.2-.7h-.1c-.1-.4-.3-.7-.8-.8h-.1a.5.5 0 0 0-.2-.4l.2-.4c0-.5.1-1-.5-1.2a1.9 1.9 0 0 0 0-.2v-.3a1.4 1.4 0 0 0-.4-.6c.2-.8.8-.8 1.5-.9l.3.8c-.2.3-.2.7.2.9h.3a1.5 1.5 0 0 0 .4 1.2 1.1 1.1 0 0 0 .7 1.3v.5zm3.4 3zM23.9 93h.4l-.2.5zm1.6 2.7zm2.6.1h-.2l-1.2.2h-.3c0-.2-.3-.2-.4-.3a1 1 0 0 0 .2-.6l-.3-.5H25l-.3.2-.4-.2v-.3l.8.2.6-.4a1 1 0 0 0 .4.4l1.3.5a.5.5 0 0 0 .5.3.4.4 0 0 0 .4.5.5.5 0 0 0-.2 0zm2.5-.9c-.5-.1-1.1 0-1.5-.5a1.2 1.2 0 0 0-1.3-.3c.1-.3-.1-.3-.2-.5l-.3-.5h-.2l3.7 2zm9.2 5.5v-.2h.1c-.1 0-.1.1-.1.1zM43 99l-.3.2h-1.3c-.4.3-.5-.3-.8-.3h-.1v-.2l-.4-.5 3.6.7zm18.8.4l.3-.3c0 .2 0 .4-.3.3zm1.9 1.2a1.6 1.6 0 0 0-1.1.2c.1-.3 0-.5-.2-.7.4-.3.9-.2 1.4-.2a.6.6 0 0 0-.1.7zm12.4-5a1.3 1.3 0 0 0 0 .4.9.9 0 0 0-1 .1l.5.3c-.4.1-.5.4-.8.7h-.6a.8.8 0 0 0-.6 1.1h-.1L73 98a3.3 3.3 0 0 0-1.5.4.7.7 0 0 0-.8-.3c-.3-.2-.7-.2-.9-.5h-.3v.9a1.3 1.3 0 0 0-.5.6h-.3c-.3.3-.3-.3-.6-.2s-.4.7-.5 1h-.5l-1.1.5-.3.3c-.1-.3-.2-.6-.5-.7h-.1v-.8l-.4-.2c0-.3-.4-.7.2-.8l.5.5h.3c.1-.3.3-.2.6-.2l.6-.3-.2.2c-.1.5.2.7.6.8h.2c.2-.4.4-.8 1-.5s0-.2 0-.3-.9-.4-.8-1a.5.5 0 0 0 .1-.6l3-1.2.4.3h-.1c0 .1 0 .1.1.2a.5.5 0 0 0 .3-.5h.1c0-.1 0-.1-.1-.2l3.5-2h.3c.1.6.5.5.9.5.1.3.1.6.5.6a1.7 1.7 0 0 0-.6 1.1zm4.7-5.3H80l2-1.6v.3a1.1 1.1 0 0 0 .1.6h.1a.9.9 0 0 0-.8.1 1.2 1.2 0 0 0-.6.6zm2.3 2.1H83a.8.8 0 0 0-.6-.1l-.5-.2a1.9 1.9 0 0 1-.3-1c.6-.3 1 .4 1.5.4a.6.6 0 0 0 .1.7c-.2-.1-.2 0-.1.2zm5.4-5.2zm0-2.4a.4.4 0 0 0 0 .3h-.2c-.4.3-1.1.3-1.3.9a2 2 0 0 0 .3 1.6l-.2.4H87a.5.5 0 0 0 0 .3l-.5-.2a1.1 1.1 0 0 0-.8.4c-.8-.1-1 .6-1.4 1s-.5-.6-1-.5h-.4a1.4 1.4 0 0 0 .6-1.2l-.3-.3.8-.5v-.3a47.8 47.8 0 0 0 3.9-4.1v.3c.1.5.6 1 .5 1.6zm4.3-3.9c-.3.5-1.1.2-1.4.7h-.3a4.7 4.7 0 0 0 0-1.5.5.5 0 0 0 .3-.5c.3.2.4.9 1 .5a.5.5 0 0 0 .5.3.5.5 0 0 1 .5.3c-.3-.1-.8-.3-.6.2zm.6-1.3zm.8 1.8l-.4-.6c.1 0 .3 0 .1-.2.6-.1.2.5.3.8zm-.2-5.3a1.9 1.9 0 0 1-1.7.6v-.2c.5 0 .4-.4.4-.7l1.1-2a6.1 6.1 0 0 0 .7 1.5v.2zm1.4-.1a.9.9 0 0 0-.1-.4h.2v.2zm.5-4.3zm.3 1.3zm4.8-12.7a.7.7 0 0 0-.5.5c.1.4-.1.4-.4.4a.7.7 0 0 0-.7.5 1.3 1.3 0 0 0 0 .9l.2.2c-.6.3-.6.8-.1 1.3l.6.4-.2.2a.9.9 0 0 0 0 .3v.3a1.1 1.1 0 0 0-.4.6 1 1 0 0 0 0 .3 2.9 2.9 0 0 1 .1.5v.2h-.2a.5.5 0 0 0-.5.3c.3.5-.2.6-.4.9s-.2.6 0 .8-.9-.2-.9 1.1h.1c-.2.1-.3.2-.3.4h-.7c-.5-.1-.4-.4-.3-.8v-.3c.3 0 .6.5.8 0s.4-.8-.1-1.2l-.6-.5a47.5 47.5 0 0 0 2.5-10l.5-.2v-.2H99V57l.2-.3v-.3h.1a.1.1 0 0 0 0-.1h.1a.8.8 0 0 1 .8.4h.2v.4c0 .1.4.8-.1 1.2a.6.6 0 0 0 .4.5v.2c.2.1 0 .5.4.5a3 3 0 0 0-.2.7zm.2-12.2z" fill="#225378" style="fill: rgb(34, 83, 120);"></path>
            <path d="M15.9 88.6a.6.6 0 0 0-.6.4l1 1.3h.7a.9.9 0 0 0 0-1.4 2.5 2.5 0 0 0-1.1-.3zm-2.5-2a1.2 1.2 0 0 0-.3-.7l-.5-.4c.2-.4-.2-.6-.5-.9s-.5 0-.6.3l.3.7h.2l1.1 1.2.7.7v-1h-.4zM79.9 93zm-5.2 1.3c-.5.1-.2.5-.2.8s0 .7.5.8l.5-.8a1.6 1.6 0 0 0-.8-.8z" fill="#225378" style="fill: rgb(34, 83, 120);"></path>
        </g>
    </g>
    <g id="SvgjsG1035" rel="mainfill" name="main_text" xmlns:name="main_text" fill="#ffffff" transform="translate(34.145832800865165,-113.88119659423829)">
        <path d="M7.97 222.37L6.29 217.28L1.85 218.76L3.25 222.95L3.25 240L7.97 240ZM4.48 215.14L6.74 215.14L8.26 213.62L8.26 211.36L6.74 209.84L4.48 209.84L2.96 211.36L2.96 213.62ZM26.17 217.69L19.35 217.69L16.97 220.44L16.19 217.28L12.37 218.22L13.64 223.44L13.64 240L18.37 240L18.37 224.59L20.63 222.00L24.41 222.00L25.93 223.65L25.93 240L30.65 240L30.65 223.65L32.17 222.00L36.94 222.00L38.21 223.28L38.21 240L42.94 240L42.94 221.59L38.99 217.69L30.45 217.69L28.31 220.03ZM55.30 222.00L60.48 222.00L61.75 223.28L61.75 234.41L60.48 235.69L55.67 235.69L53.04 233.80L53.04 224.59ZM54.03 217.69L51.65 220.44L50.87 217.28L47.04 218.22L48.32 223.44L48.32 246.90L53.04 246.90L53.04 238.40L55.26 240L62.53 240L66.48 236.10L66.48 221.59L62.53 217.69ZM83.41 235.69L77.00 235.69L75.72 234.41L75.72 231.37L85.62 231.37L89.16 227.88L89.16 221.59L85.21 217.69L74.94 217.69L71.00 221.59L71.00 236.10L74.94 240L84.02 240L89.28 238.36L88.01 234.25ZM77.00 222.00L83.16 222.00L84.43 223.28L84.43 225.99L83.36 227.06L75.72 227.06L75.72 223.28ZM100.83 222.00L104.40 222.00L108.10 225.62L111.22 222.41L106.37 217.69L99.55 217.69L97.17 220.44L96.39 217.28L92.57 218.22L93.84 223.44L93.84 240L98.57 240L98.57 224.59ZM119.19 222.37L117.51 217.28L113.07 218.76L114.47 222.95L114.47 240L119.19 240ZM115.70 215.14L117.96 215.14L119.48 213.62L119.48 211.36L117.96 209.84L115.70 209.84L114.18 211.36L114.18 213.62ZM142.20 234.25L142.20 217.69L137.48 217.69L137.48 233.10L135.22 235.69L130.00 235.69L128.72 234.41L128.72 217.69L124.00 217.69L124.00 236.10L127.94 240L136.49 240L138.87 237.25L139.65 240.41L143.47 239.47ZM160.98 217.69L154.16 217.69L151.77 220.44L150.99 217.28L147.17 218.22L148.45 223.44L148.45 240L153.17 240L153.17 224.59L155.43 222.00L159.21 222.00L160.73 223.65L160.73 240L165.46 240L165.46 223.65L166.98 222.00L171.74 222.00L173.02 223.28L173.02 240L177.74 240L177.74 221.59L173.80 217.69L165.25 217.69L163.11 220.03Z" fill="#ffffff" style="fill: rgb(255, 255, 255);"></path>
    </g>
    <g id="SvgjsG1036" rel="mainfill" name="slogan_text" xmlns:name="slogan_text" fill="#ffffff" transform="translate(63.78083451986312,-83.27119598388674)">
        <path d="M0.58 239.20C2.24 240.22 3.60 240.32 4.46 240.32C5.26 240.32 6.87 240.26 8.02 239.12C8.51 238.66 8.99 237.91 8.99 236.72C8.99 236.01 8.75 235.26 8.25 234.81C7.97 234.53 7.28 234.20 6.83 234.05L6.21 233.88C5.67 233.73 5.39 233.75 5.06 233.60C4.83 233.51 4.65 233.38 4.65 233.06C4.65 232.87 4.76 232.70 4.96 232.59C5.17 232.46 5.43 232.39 5.75 232.39C6.38 232.39 7.07 232.63 7.56 232.87L8.73 230.67C8.15 230.43 7.09 230.04 5.65 230.04C4.20 230.04 2.95 230.45 2.20 231.21C1.66 231.79 1.29 232.63 1.29 233.56C1.29 234.31 1.55 234.81 1.92 235.22C2.43 235.80 3.10 235.95 3.60 236.06L4.50 236.27C4.85 236.36 5.17 236.42 5.41 236.62C5.56 236.77 5.58 236.90 5.58 237.05C5.58 237.22 5.56 237.35 5.41 237.50C5.17 237.69 4.78 237.76 4.53 237.76C4.16 237.76 3.62 237.67 3.19 237.52C2.69 237.37 2.24 237.13 1.81 236.81ZM16.53 233.19L16.53 230.37L14.57 230.37L14.57 227.20L11.12 227.20L11.12 230.37L10.02 230.37L10.02 233.19L11.12 233.19L11.12 240L14.57 240L14.57 233.19ZM28.03 235.45C28.03 234.38 27.88 232.72 26.50 231.40C25.36 230.35 23.92 230.09 22.80 230.09C20.90 230.09 19.65 230.71 18.85 231.49C18.01 232.33 17.41 233.58 17.41 235.22C17.41 237.07 18.21 238.23 18.83 238.86C20.02 240.04 21.55 240.32 22.82 240.32C24.91 240.32 26.03 239.68 26.74 238.99C27.45 238.30 27.75 237.54 27.90 237.00L24.61 237.00C24.46 237.33 24.24 237.50 24.00 237.65C23.57 237.89 22.97 237.91 22.88 237.91C22.11 237.91 21.70 237.67 21.46 237.44C21.05 237.03 20.86 236.34 20.86 235.82L28.03 235.82ZM20.97 233.84C21.03 233.41 21.25 233.06 21.48 232.80C21.83 232.46 22.30 232.29 22.88 232.29C23.23 232.29 23.85 232.35 24.31 232.80C24.56 233.06 24.78 233.47 24.87 233.84ZM33.46 239.07C34.56 240.22 35.83 240.32 36.46 240.32C37.43 240.32 38.66 240.04 39.76 238.99C40.68 238.06 41.31 236.81 41.31 235.17C41.31 233.51 40.64 232.24 39.84 231.45C39.07 230.67 37.90 230.04 36.42 230.04C34.97 230.04 34.07 230.67 33.46 231.42L33.46 230.37L30.02 230.37L30.02 244.93L33.46 244.93ZM35.58 232.98C36.20 232.98 36.70 233.19 37.11 233.62C37.54 234.05 37.77 234.68 37.77 235.22C37.77 235.80 37.47 236.38 37.11 236.75C36.70 237.18 36.20 237.39 35.58 237.39C34.97 237.39 34.46 237.18 34.02 236.75C33.66 236.38 33.36 235.80 33.36 235.22C33.36 234.68 33.59 234.05 34.02 233.62C34.46 233.19 34.97 232.98 35.58 232.98ZM48.31 224.29L48.31 240L51.76 240L51.76 238.94C52.73 240.19 54.00 240.32 54.67 240.32C56.05 240.32 57.12 239.87 58.05 238.99C59.02 238.04 59.60 236.70 59.60 235.15C59.60 233.51 58.91 232.18 58.03 231.34C57.08 230.41 55.83 230.04 54.62 230.04C53.31 230.04 52.38 230.63 51.76 231.29L51.76 224.29ZM53.87 237.39C53.29 237.39 52.75 237.13 52.38 236.81C51.93 236.40 51.65 235.76 51.65 235.17C51.65 234.63 51.95 233.99 52.30 233.62C52.71 233.19 53.22 232.98 53.87 232.98C54.62 232.98 55.08 233.28 55.40 233.60C55.81 234.01 56.07 234.57 56.07 235.24C56.07 235.73 55.85 236.29 55.40 236.75C54.90 237.24 54.37 237.39 53.87 237.39ZM61.82 244.93L65.68 244.93L73.41 230.37L69.47 230.37L66.97 235.30L64.41 230.37L60.40 230.37L65.05 238.69ZM79.02 239.20C80.68 240.22 82.03 240.32 82.89 240.32C83.69 240.32 85.31 240.26 86.45 239.12C86.95 238.66 87.42 237.91 87.42 236.72C87.42 236.01 87.18 235.26 86.69 234.81C86.41 234.53 85.72 234.20 85.26 234.05L84.64 233.88C84.10 233.73 83.82 233.75 83.50 233.60C83.26 233.51 83.09 233.38 83.09 233.06C83.09 232.87 83.20 232.70 83.39 232.59C83.61 232.46 83.86 232.39 84.19 232.39C84.81 232.39 85.50 232.63 86.00 232.87L87.16 230.67C86.58 230.43 85.52 230.04 84.08 230.04C82.64 230.04 81.39 230.45 80.63 231.21C80.09 231.79 79.73 232.63 79.73 233.56C79.73 234.31 79.99 234.81 80.35 235.22C80.87 235.80 81.54 235.95 82.03 236.06L82.94 236.27C83.28 236.36 83.61 236.42 83.84 236.62C83.99 236.77 84.02 236.90 84.02 237.05C84.02 237.22 83.99 237.35 83.84 237.50C83.61 237.69 83.22 237.76 82.96 237.76C82.59 237.76 82.05 237.67 81.62 237.52C81.13 237.37 80.68 237.13 80.24 236.81ZM94.96 233.19L94.96 230.37L93.00 230.37L93.00 227.20L89.55 227.20L89.55 230.37L88.45 230.37L88.45 233.19L89.55 233.19L89.55 240L93.00 240L93.00 233.19ZM106.47 235.45C106.47 234.38 106.32 232.72 104.94 231.40C103.80 230.35 102.35 230.09 101.23 230.09C99.34 230.09 98.09 230.71 97.29 231.49C96.45 232.33 95.84 233.58 95.84 235.22C95.84 237.07 96.64 238.23 97.27 238.86C98.45 240.04 99.98 240.32 101.25 240.32C103.34 240.32 104.46 239.68 105.18 238.99C105.89 238.30 106.19 237.54 106.34 237.00L103.04 237.00C102.89 237.33 102.68 237.50 102.44 237.65C102.01 237.89 101.40 237.91 101.32 237.91C100.54 237.91 100.13 237.67 99.90 237.44C99.49 237.03 99.29 236.34 99.29 235.82L106.47 235.82ZM99.40 233.84C99.46 233.41 99.68 233.06 99.92 232.80C100.26 232.46 100.74 232.29 101.32 232.29C101.66 232.29 102.29 232.35 102.74 232.80C103.00 233.06 103.21 233.47 103.30 233.84ZM111.90 239.07C113.00 240.22 114.27 240.32 114.89 240.32C115.86 240.32 117.09 240.04 118.19 238.99C119.12 238.06 119.74 236.81 119.74 235.17C119.74 233.51 119.07 232.24 118.28 231.45C117.50 230.67 116.34 230.04 114.85 230.04C113.41 230.04 112.50 230.67 111.90 231.42L111.90 230.37L108.45 230.37L108.45 244.93L111.90 244.93ZM114.01 232.98C114.63 232.98 115.13 233.19 115.54 233.62C115.97 234.05 116.21 234.68 116.21 235.22C116.21 235.80 115.91 236.38 115.54 236.75C115.13 237.18 114.63 237.39 114.01 237.39C113.41 237.39 112.89 237.18 112.46 236.75C112.09 236.38 111.79 235.80 111.79 235.22C111.79 234.68 112.03 234.05 112.46 233.62C112.89 233.19 113.41 232.98 114.01 232.98Z" fill="#ffffff" style="fill: rgb(255, 255, 255);"></path>
    </g>
</svg>